<?xml version="1.0" encoding="UTF-8"?>
<svg width="717px" height="166px" viewBox="0 0 717 166" version="1.1" xmlns="http://www.w3.org/2000/svg" xmlns:xlink="http://www.w3.org/1999/xlink">
    <title>bg-logo</title>
    <defs>
        <rect id="path-1" x="1.13686838e-13" y="0" width="717" height="166"></rect>
        <filter x="-8.7%" y="-48.5%" width="117.3%" height="196.9%" filterUnits="objectBoundingBox" id="filter-4">
            <feGaussianBlur stdDeviation="24.7058824" in="SourceGraphic"></feGaussianBlur>
        </filter>
    </defs>
    <g id="bg-logo" stroke="none" stroke-width="1" fill="none" fill-rule="evenodd">
        <g id="Shadow">
            <mask id="mask-3" fill="white">
                <use xlink:href="#path-1"></use>
            </mask>
            <use id="Rectangle" fill="#000000" opacity="0.0700000003" filter="url(#filter-2)" xlink:href="#path-1"></use>
            <path d="M669.299467,59 C689.895125,59 712.38222,67.6365305 728.774683,87.6480037 L728.774683,87.6480037 L707.128226,106.184947 C698.301516,95.86324 684.851291,87.2267095 669.299467,87.2267095 C643.449816,87.2267095 624.115117,106.184947 624.115117,136.096833 C624.115117,163.902249 642.609177,183.913722 669.299467,183.913722 C684.851291,183.913722 698.301516,175.909133 707.128226,164.955484 L707.128226,164.955484 L728.774683,183.703075 C715.954937,199.712253 695.779599,211.929784 669.299467,211.929784 C628.528472,211.929784 593.221631,185.388251 593.221631,136.096833 C593.221631,93.335475 620.542401,59 669.299467,59 Z M483.751741,67.7769619 L562.561655,211.134006 L528.787229,211.134006 L483.751741,129.215695 L442.05254,211.134006 L410.779599,211.134006 L483.751741,67.7769619 Z M153.917657,67.7769619 C177.998464,67.7769619 197.700942,87.5251262 197.700942,111.661771 C197.700942,132.460246 183.056893,149.967359 163.602519,154.420204 L163.602519,154.420204 L194.782057,211.134006 L163.687167,211.134006 L118.65168,129.215695 L150.998771,129.215695 C160.631094,129.215695 168.512085,121.31643 168.512085,111.661771 C168.512085,102.007113 160.631094,94.1078476 150.998771,94.1078476 L150.998771,94.1078476 L57.4747542,94.1078476 L43,67.7769619 Z M807.210979,60.8958238 L807.210979,122.638825 L868.367472,122.638825 L868.367472,60.8958238 L898,60.8958238 L898,210.455255 L868.367472,210.455255 L868.367472,149.180358 L807.210979,149.180358 L807.210979,210.455255 L777.578451,210.455255 L777.578451,60.8958238 L807.210979,60.8958238 Z M364.077427,184.124369 L364.077427,210.455255 L258.997542,210.455255 L258.997542,184.124369 L364.077427,184.124369 Z M364.077427,125.61129 L364.077427,151.942175 L258.997542,151.942175 L258.997542,125.61129 L364.077427,125.61129 Z M364.077427,67.0982102 L364.077427,93.4290959 L258.997542,93.4290959 L258.997542,67.0982102 L364.077427,67.0982102 Z" id="REACH" fill="#000000" opacity="0.0700000003" filter="url(#filter-4)" mask="url(#mask-3)"></path>
        </g>
        <path d="M152.917657,47.7769619 C176.998464,47.7769619 196.700942,67.5251262 196.700942,91.6617715 C196.700942,112.252261 182.348309,129.616887 163.184698,134.282712 L162.602519,134.420204 L179.964,166 L148.869,166 L117.65168,109.215695 L149.998771,109.215695 C159.631094,109.215695 167.512085,101.31643 167.512085,91.6617715 C167.512085,82.1168254 159.80919,74.2876031 150.326458,74.1108988 L149.998771,74.1078476 L56.4747542,74.1078476 L42,47.7769619 L152.917657,47.7769619 Z M363.077427,164.124369 L363.077,166 L257.997,166 L257.997542,164.124369 L363.077427,164.124369 Z M482.751741,47.7769619 L547.744,166 L513.969,166 L482.751741,109.215695 L453.846,166 L422.573,166 L482.751741,47.7769619 Z M668.299467,39 C684.675608,39 702.247564,44.4602322 717.000747,56.7572926 L717,76.874 L706.128226,86.1849472 C697.301516,75.86324 683.851291,67.2267095 668.299467,67.2267095 C642.449816,67.2267095 623.115117,86.1849472 623.115117,116.096833 C623.115117,143.902249 641.609177,163.913722 668.299467,163.913722 C683.661634,163.913722 696.973149,156.103176 705.80324,145.354902 L706.128226,144.955484 L717,154.371 L717,166 L608.792666,166.001719 C598.489341,153.594408 592.221631,136.864913 592.221631,116.096833 C592.221631,73.335475 619.542401,39 668.299467,39 Z M363.077427,105.61129 L363.077427,131.942175 L257.997542,131.942175 L257.997542,105.61129 L363.077427,105.61129 Z M363.077427,47.0982102 L363.077427,73.4290959 L257.997542,73.4290959 L257.997542,47.0982102 L363.077427,47.0982102 Z" id="Logo" fill="#FFFE00" opacity="0.990299481"></path>
    </g>
</svg>
