<svg width="717" height="166" xmlns="http://www.w3.org/2000/svg" xmlns:xlink="http://www.w3.org/1999/xlink"><defs><filter x="-8.7%" y="-48.5%" width="117.3%" height="196.9%" filterUnits="objectBoundingBox" id="b"><feGaussianBlur stdDeviation="24.71" in="SourceGraphic"/></filter><path id="a" d="M0 0h717v166H0z"/></defs><g fill="none" fill-rule="evenodd"><mask id="c" fill="#fff"><use xlink:href="#a"/></mask><use fill="#000" opacity=".07" filter="url(#filter-2)" xlink:href="#a"/><path d="M669.3 59c20.6 0 43.08 8.64 59.47 28.65l-21.64 18.53c-8.83-10.32-22.28-18.95-37.83-18.95-25.85 0-45.18 18.95-45.18 48.87 0 27.8 18.49 47.81 45.18 47.81 15.55 0 29-8 37.83-18.95l21.64 18.74c-12.82 16.01-32.99 28.23-59.47 28.23-40.77 0-76.08-26.54-76.08-75.83 0-42.76 27.32-77.1 76.08-77.1zm-185.55 8.78l78.81 143.35H528.8l-45.04-81.91-41.7 81.91h-31.27l72.97-143.35zm-329.83 0c24.08 0 43.78 19.75 43.78 43.88 0 20.8-14.64 38.3-34.1 42.76l31.18 56.71h-31.1l-45.03-81.91H151c9.63 0 17.51-7.9 17.51-17.56 0-9.65-7.88-17.55-17.51-17.55H57.47L43 67.78zm653.3-6.88v61.74h61.15V60.9H898v149.56h-29.63v-61.28H807.2v61.28h-29.63V60.9h29.63zM364.07 184.12v26.34H259v-26.34h105.08zm0-58.5v26.32H259v-26.33h105.08zm0-58.52v26.33H259V67.1h105.08z" fill="#000" opacity=".07" filter="url(#b)" mask="url(#c)"/><path d="M152.92 47.78c24.08 0 43.78 19.75 43.78 43.88a44.01 44.01 0 01-33.52 42.62l-.58.14L179.96 166h-31.1l-31.2-56.78H150c9.63 0 17.51-7.9 17.51-17.56 0-9.54-7.7-17.37-17.18-17.55H56.47L42 47.78h110.92zm210.16 116.34V166H258v-1.88h105.08zM482.75 47.78l65 118.22h-33.78l-31.22-56.78-28.9 56.78h-31.28l60.18-118.22zM668.3 39A76.14 76.14 0 01717 56.76v20.11l-10.87 9.31c-8.83-10.32-22.28-18.95-37.83-18.95-25.85 0-45.18 18.95-45.18 48.87 0 27.8 18.49 47.81 45.18 47.81 15.36 0 28.67-7.8 37.5-18.56l.33-.4 10.87 9.42V166H608.8c-10.31-12.4-16.58-29.14-16.58-49.9 0-42.76 27.32-77.1 76.08-77.1zm-305.22 66.61v26.33H258v-26.33h105.08zm0-58.51v26.33H258V47.1h105.08z" fill="#FFFE00" opacity=".99"/></g></svg>
