<?xml version="1.0" encoding="UTF-8"?>
<svg width="32px" height="32px" viewBox="0 0 32 32" version="1.1" xmlns="http://www.w3.org/2000/svg" xmlns:xlink="http://www.w3.org/1999/xlink">
    <title>desktop_account</title>
    <defs>
        <filter id="filter-1">
            <feColorMatrix in="SourceGraphic" type="matrix" values="0 0 0 0 0.000000 0 0 0 0 0.000000 0 0 0 0 0.000000 0 0 0 1.000000 0"></feColorMatrix>
        </filter>
    </defs>
    <g id="desktop_account" stroke="none" stroke-width="1" fill="none" fill-rule="evenodd">
        <g filter="url(#filter-1)" id="Combined-Shape-2">
            <g transform="translate(6.000000, 7.000000)">
                <path d="M15.064406,3.62413235 C15.064406,4.72160068 15.1166223,5.38518617 15.064406,7.58012282 C15.0121897,9.77505947 13.3151596,11.6126808 12.7407801,12.1996988 C12.3578605,12.5910441 12.3926714,12.9228368 12.8452128,13.195077 C16.6570035,14.9476234 18.7282506,15.9089716 19.0589539,16.0791217 C19.3896572,16.2492718 19.581117,16.5300195 19.6333333,16.9213648 L19.6333333,18.503761 C19.6333333,18.8780913 19.3983599,18.8979099 18.9284131,19 L0.704920213,19 C0.234973404,18.8979099 -6.39488462e-14,18.8780913 -6.39488462e-14,18.503761 L-6.39488462e-14,16.9213648 C0.0522163121,16.5300195 0.243676123,16.2492718 0.574379433,16.0791217 C0.905082742,15.9089716 2.97632979,14.9476234 6.78812057,13.195077 C7.24066194,12.9228368 7.27547281,12.5910441 6.89255319,12.1996988 C6.31817376,11.6126808 4.62114362,9.77505947 4.5689273,7.58012282 C4.51671099,5.38518617 4.5689273,4.72160068 4.5689273,3.62413235 C4.5689273,2.52988927 6.85296098,0.0147734076 9.80361259,0 C12.7803724,0.0147734076 15.064406,2.52988927 15.064406,3.62413235 Z" id="Combined-Shape" stroke="#000000" stroke-width="1.5"></path>
            </g>
        </g>
    </g>
</svg>