<svg height="469" viewBox="0 0 2049 469" width="2049" xmlns="http://www.w3.org/2000/svg" xmlns:xlink="http://www.w3.org/1999/xlink"><filter id="a" height="143%" width="107.7%" x="-3.8%" y="-21.5%"><feGaussianBlur in="SourceGraphic" stdDeviation="24.7058824"/></filter><g fill="none" fill-rule="evenodd" transform="translate(54 21)"><path d="m1415.94956 385.946661c59.86677 0 105.47955-27.557722 134.46268-63.667841l-48.93872-42.286849c-19.95559 24.706923-50.36411 42.761982-85.52396 42.761982-60.34191 0-102.15363-45.137648-102.15363-107.855223 0-67.468906 43.71225-110.230889 102.15363-110.230889 35.15985 0 65.56837 19.480459 85.52396 42.761983l48.93872-41.811717c-37.06039-45.1376482-87.89964-64.618107-134.46268-64.618107-110.23089 0-171.9982 77.446702-171.9982 173.89873 0 111.181155 79.82237 171.047931 171.9982 171.047931zm244.79915-3.325932v-337.3445307h66.99377v139.2668037h138.26375v-139.2668037h66.99377v337.3445307h-66.99377v-138.210952h-138.26375v138.210952zm-1172.417425-323.3544993h237.566571v59.3916423h-237.566571zm508.1285 1.5309846 178.174925 323.3544997h-76.35785l-101.817075-184.774-94.274335 184.774h-70.702451zm-508.1285 130.4504437h237.566571v59.391643h-237.566571zm0 131.981429h237.566571v59.391642h-237.566571zm-138.5805-163.445801c0-54.44234-44.543732-98.9860717-98.986071-98.9860717h-250.764714l32.7247952 59.3916427h211.4408478c21.776935 0 39.594428 17.817493 39.594428 39.594429 0 21.776935-17.817493 39.594428-39.594428 39.594428h-2.831002-28.14504-42.154868l101.817073 184.774h70.299908l-70.491281-127.923c43.982811-10.043786 77.090352-49.53263 77.090352-96.445428" fill="#000" filter="url(#a)" opacity=".074627"/><path d="m1392.649 337.808603c58.62794 0 103.29684-26.987464 131.68021-62.350348l-47.92601-41.411799c-19.54265 24.195658-49.32192 41.8771-83.7542 41.8771-59.09324 0-100.03974-44.203605-100.03974-105.623351 0-66.072757 42.8077-107.9498568 100.03974-107.9498568 34.43228 0 64.21155 19.0773454 83.7542 41.8770998l47.92601-40.9464975c-36.29349-44.2036051-86.08071-63.2809505-131.68021-63.2809505-107.94986 0-168.439 75.8440803-168.439 170.300205 0 108.880459 78.17058 167.508398 168.439 167.508398zm239.73347-3.257108v-330.36378504h65.60745v136.38492404h135.40262v-136.38492404h65.60746v330.36378504h-65.60746v-135.350921h-135.40262v135.350921zm-1148.156333-316.6632525h232.650553v58.1626383h-232.650553zm497.613683 1.4993036 174.48791 316.6632529h-74.77776l-99.71015-180.95043-92.323494 180.95043h-69.23939zm-497.613683 127.7510039h232.650553v58.162638h-232.650553zm0 129.250307h232.650553v58.162638h-232.650553zm-135.712823-160.06358c0-53.3157522-43.621978-96.9377309-96.93773-96.9377309h-245.575584l32.0476137 58.1626383h207.0654543c21.326301 0 38.775093 17.4487915 38.775093 38.7750926 0 21.3263-17.448792 38.775092-38.775093 38.775092h-2.772419-27.562628-41.282548l99.71015 180.95043h68.845176l-69.032589-125.27586c43.072665-9.835949 75.495104-48.507641 75.495104-94.449662" fill="#13e4ad"/></g></svg>