<svg width="48px" height="48px" fill="none" xmlns="http://www.w3.org/2000/svg" aria-labelledby="extensionIconTitle" stroke="#2329D6" stroke-width="1" stroke-linecap="square" stroke-linejoin="miter" color="#2329D6"> <title id="extensionIconTitle">Extension</title> <symbol id="icon" viewBox="0 0 24 24"> <path d="M9 4C9 2.89543 9.89543 2 11 2C12.1046 2 13 2.89543 13 4V6H18V11H20C21.1046 11 22 11.8954 22 13C22 14.1046 21.1046 15 20 15H18V20H13V18C13 16.8954 12.1046 16 11 16C9.89543 16 9 16.8954 9 18V20H4V15H6C7.10457 15 8 14.1046 8 13C8 11.8954 7.10457 11 6 11H4V6H9V4Z"/> </symbol></svg>