<svg role="img" xmlns="http://www.w3.org/2000/svg" width="48px" height="48px" aria-labelledby="facebookIcon" stroke="#2329D6" stroke-width="1" stroke-linecap="square" stroke-linejoin="miter" fill="none" color="#2329D6"> <title id="facebookIconTitle">Facebook</title> <symbol id="icon" viewBox="0 0 24 24"> <path d="M22,12 C22,6.4775 17.5225,2 12,2 C6.4775,2 2,6.4775 2,12 C2,16.9916667 5.65666667,21.1283333 10.4375,21.8783333 L10.4375,14.8908333 L7.89833333,14.8908333 L7.89833333,11.9991667 L10.4375,11.9991667 L10.4375,9.7975 C10.4375,7.29166667 11.9308333,5.90666667 14.215,5.90666667 C15.3083333,5.90666667 16.4533333,6.1025 16.4533333,6.1025 L16.4533333,8.56333333 L15.1916667,8.56333333 C13.9491667,8.56333333 13.5616667,9.33416667 13.5616667,10.125 L13.5616667,12 L16.335,12 L15.8916667,14.8916667 L13.5616667,14.8916667 L13.5616667,21.8791667 C18.3433333,21.1283333 22,16.9908333 22,12 Z" id="Shape"></path> </symbol></svg>
