<?xml version="1.0" encoding="UTF-8"?>
<svg width="32px" height="32px" viewBox="0 0 32 32" version="1.1" xmlns="http://www.w3.org/2000/svg" xmlns:xlink="http://www.w3.org/1999/xlink">
    <g stroke="none" stroke-width="1" fill="none" fill-rule="evenodd">
        <path d="M21.064,10.624 C21.064,11.721 21.117,12.385 21.064,14.58 C21.012,16.774 19.315,18.612 18.741,19.199 C18.358,19.591 18.392,19.923 18.845,20.194 C22.657,21.947 24.728,22.908 25.058,23.079 C25.389,23.249 25.581,23.529 25.633,23.921 L25.633,25.503 C25.633,25.878 25.398,25.897 24.928,26 L6.705,26 C6.235,25.897 6,25.878 6,25.503 L6,23.921 C6.052,23.529 6.244,23.249 6.574,23.079 C6.905,22.908 8.976,21.947 12.788,20.194 C13.241,19.923 13.275,19.591 12.892,19.199 C12.318,18.612 10.621,16.774 10.569,14.58 C10.516,12.385 10.569,11.721 10.569,10.624 C10.569,9.529 12.853,7.015 15.803,7 C18.78,7.015 21.064,9.529 21.064,10.624 Z" id="Stroke-1" stroke="#020203" stroke-width="1.5"></path>
    </g>
</svg>