<?xml version="1.0" encoding="UTF-8"?>
<svg width="32px" height="32px" viewBox="0 0 32 32" version="1.1" xmlns="http://www.w3.org/2000/svg" xmlns:xlink="http://www.w3.org/1999/xlink">
    <g stroke="none" stroke-width="1" fill="none" fill-rule="evenodd">
        <path d="M20.868,15.6119 L20.868,15.6009 C20.868,15.1869 20.532,14.8559 20.118,14.8559 C19.704,14.8559 19.368,15.1979 19.368,15.6119 C19.368,16.0259 19.704,16.3619 20.118,16.3619 C20.532,16.3619 20.868,16.0259 20.868,15.6119 M12.026,15.6119 L12.026,15.6009 C12.026,15.1869 11.69,14.8559 11.276,14.8559 C10.862,14.8559 10.526,15.1979 10.526,15.6119 C10.526,16.0259 10.862,16.3619 11.276,16.3619 C11.69,16.3619 12.026,16.0259 12.026,15.6119 M16.447,15.6119 L16.447,15.6009 C16.447,15.1869 16.111,14.8559 15.697,14.8559 C15.283,14.8559 14.947,15.1979 14.947,15.6119 C14.947,16.0259 15.283,16.3619 15.697,16.3619 C16.111,16.3619 16.447,16.0259 16.447,15.6119 M10.945,22.5879 C11.057,22.5879 11.169,22.6129 11.272,22.6629 C15.326,24.6329 20.437,23.6269 23.157,20.3269 C25.825,17.0909 25.376,12.5509 22.113,9.7679 C18.783,6.9289 13.551,6.7179 9.941,9.2789 C6.401,11.7899 5.484,16.2749 7.807,19.7129 C7.938,19.9059 7.972,20.1479 7.898,20.3699 L6.876,23.4359 L10.788,22.6039 C10.84,22.5929 10.892,22.5879 10.945,22.5879 M5.75,25.1929 C5.539,25.1929 5.334,25.1039 5.191,24.9429 C5.012,24.7419 4.953,24.4619 5.038,24.2059 L6.361,20.2369 C3.829,16.1529 4.958,10.9739 9.073,8.0549 C13.226,5.1099 19.25,5.3559 23.087,8.6269 C26.989,11.9559 27.517,17.3959 24.315,21.2809 C21.22,25.0339 15.474,26.2329 10.854,24.1239 L5.906,25.1759 C5.854,25.1869 5.802,25.1929 5.75,25.1929" id="Fill-1" fill="#020203"></path>
    </g>
</svg>