<?xml version="1.0" encoding="UTF-8"?>
<svg width="38px" height="38px" viewBox="0 0 38 38" version="1.1" xmlns="http://www.w3.org/2000/svg" xmlns:xlink="http://www.w3.org/1999/xlink">
    <g stroke="none" stroke-width="1" fill="none" fill-rule="evenodd">
        <path d="M6.28009357,10.906 L11.9990936,14.123 L24.9690936,6.828 L19.2500936,3.61 L6.28009357,10.906 Z M13.5290936,14.984 L19.2500936,18.202 L32.2190936,10.906 L26.4990936,7.688 L13.5290936,14.984 Z M5.50009357,26.781 L18.5000936,34.093 L18.5000936,19.501 L5.50009357,12.188 L5.50009357,26.781 Z M20.0000936,19.501 L20.0000936,34.093 L33.0000936,26.781 L33.0000936,12.188 L20.0000936,19.501 Z M19.2500936,36.125 L19.2480936,36.125 L19.2470936,36.125 L19.2450936,36.125 L19.2440936,36.125 L19.2430936,36.125 C19.1070936,36.124 18.9800936,36.087 18.8710936,36.022 L4.38309357,27.873 C4.14609357,27.74 4,27.49 4,27.219 L4,10.92 C3.99809357,10.79 4.02809357,10.659 4.09609357,10.538 C4.16809357,10.41 4.27209357,10.311 4.39209357,10.247 L18.8820936,2.096 C19.1100936,1.968 19.3890936,1.968 19.6180936,2.096 L26.8350936,6.156 C26.8570936,6.167 26.8800936,6.179 26.9010936,6.193 L34.1060936,10.246 C34.2270936,10.311 34.3320936,10.41 34.4030936,10.538 C34.4710936,10.659 34.5020936,10.79 34.5001844,10.92 L34.5001844,27.219 C34.5001844,27.49 34.3530936,27.74 34.1170936,27.873 L19.6290936,36.022 C19.5190936,36.087 19.3920936,36.124 19.2570936,36.125 L19.2560936,36.125 L19.2550936,36.125 L19.2530936,36.125 L19.2520936,36.125 L19.2500936,36.125 Z" id="Fill-4" fill="#000000"></path>
    </g>
</svg>