<?xml version="1.0" encoding="UTF-8"?>
<svg width="160px" height="160px" viewBox="0 0 160 160" version="1.1" xmlns="http://www.w3.org/2000/svg" xmlns:xlink="http://www.w3.org/1999/xlink">
    <defs>
        <filter id="filter-1">
            <feColorMatrix in="SourceGraphic" type="matrix" values="0 0 0 0 0.000000 0 0 0 0 0.000000 0 0 0 0 0.000000 0 0 0 1.000000 0"></feColorMatrix>
        </filter>
    </defs>
    <g stroke="none" stroke-width="1" fill="none" fill-rule="evenodd">
        <g filter="url(#filter-1)" id="Combined-Shape-2">
            <g transform="translate(4.000000, 6.000000)">
                <path d="M116.566788,28.0431547 C116.566788,36.535249 116.970832,41.6700038 116.566788,58.6541925 C116.162744,75.6383812 103.031303,89.857702 98.5868156,94.399985 C95.6238239,97.4281737 95.8931868,99.9955511 99.3949043,102.102117 C128.89014,115.663136 144.917232,123.101947 147.476179,124.418551 C150.035126,125.735155 151.516622,127.907551 151.920667,130.93574 L151.920667,143.180155 C151.920667,146.076683 150.102467,146.230038 146.466068,147.02 L5.4545984,147.02 C1.81819947,146.230038 0,146.076683 0,143.180155 L0,130.93574 C0.404044326,127.907551 1.88554019,125.735155 4.44448759,124.418551 C7.00343499,123.101947 23.0305266,115.663136 52.5257624,102.102117 C56.0274799,99.9955511 56.2968428,97.4281737 53.3338511,94.399985 C48.8893635,89.857702 35.7579229,75.6383812 35.3538785,58.6541925 C34.9498342,41.6700038 35.3538785,36.535249 35.3538785,28.0431547 C35.3538785,19.5760169 53.0274907,0.114315073 75.8593223,0 C98.893176,0.114315073 116.566788,19.5760169 116.566788,28.0431547 Z" id="Combined-Shape-Copy-2" stroke="#000000" stroke-width="6"></path>
            </g>
        </g>
    </g>
</svg>