<?xml version="1.0" encoding="UTF-8"?>
<svg width="38px" height="38px" viewBox="0 0 38 38" version="1.1" xmlns="http://www.w3.org/2000/svg" xmlns:xlink="http://www.w3.org/1999/xlink">
    <g stroke="none" stroke-width="1" fill="none" fill-rule="evenodd">
        <path d="M15.944,25.10975 L21.555,25.10975 L21.555,19.49975 L15.944,19.49975 L15.944,25.10975 Z M22.306,26.60975 L15.194,26.60975 C14.78,26.60975 14.444,26.27375 14.444,25.85975 L14.444,18.74975 C14.444,18.33575 14.78,17.99975 15.194,17.99975 L22.306,17.99975 C22.72,17.99975 23.056,18.33575 23.056,18.74975 L23.056,25.85975 C23.056,26.27375 22.72,26.60975 22.306,26.60975 L22.306,26.60975 Z M7.056,18.74975 L7.056,31.19375 C7.056,32.74075 8.314,33.99975 9.861,33.99975 L27.639,33.99975 C29.186,33.99975 30.444,32.74075 30.444,31.19375 L30.444,18.74975 C30.444,18.33575 30.78,17.99975 31.194,17.99975 L32.939,17.99975 L18.75,3.81075 L4.561,17.99975 L6.306,17.99975 C6.72,17.99975 7.056,18.33575 7.056,18.74975 L7.056,18.74975 Z M27.639,35.49975 L9.861,35.49975 C7.487,35.49975 5.556,33.56775 5.556,31.19375 L5.556,19.49975 L2.75,19.49975 C2.446,19.49975 2.173,19.31675 2.057,19.03675 C1.941,18.75675 2.005,18.43475 2.22,18.21975 L18.22,2.21975 C18.513,1.92675 18.987,1.92675 19.28,2.21975 L35.28,18.21975 C35.495,18.43475 35.559,18.75675 35.443,19.03675 C35.327,19.31675 35.054,19.49975 34.75,19.49975 L31.944,19.49975 L31.944,31.19375 C31.944,33.56775 30.013,35.49975 27.639,35.49975 L27.639,35.49975 Z" id="Fill-1" fill="#000000"></path>
    </g>
</svg>