<?xml version="1.0" encoding="UTF-8"?>
<svg width="38px" height="38px" viewBox="0 0 38 38" version="1.1" xmlns="http://www.w3.org/2000/svg" xmlns:xlink="http://www.w3.org/1999/xlink">
    <g stroke="none" stroke-width="1" fill="none" fill-rule="evenodd">
        <path d="M18.75,11.5 L10.75,11.5 C10.336,11.5 10,11.164 10,10.75 C10,10.336 10.336,10 10.75,10 L18.75,10 C19.164,10 19.5,10.336 19.5,10.75 C19.5,11.164 19.164,11.5 18.75,11.5 L18.75,11.5 Z M18.75,19.5 L10.75,19.5 C10.336,19.5 10,19.164 10,18.75 C10,18.336 10.336,18 10.75,18 L18.75,18 C19.164,18 19.5,18.336 19.5,18.75 C19.5,19.164 19.164,19.5 18.75,19.5 L18.75,19.5 Z M18.75,27.5 L10.75,27.5 C10.336,27.5 10,27.164 10,26.75 C10,26.336 10.336,26 10.75,26 L18.75,26 C19.164,26 19.5,26.336 19.5,26.75 C19.5,27.164 19.164,27.5 18.75,27.5 L18.75,27.5 Z M4.75,3.5 C4.061,3.5 3.5,4.061 3.5,4.75 L3.5,28.75 C3.5,31.645 5.855,34 8.75,34 L27.289,34 C26.49,33.149 26,32.006 26,30.75 L26,4.75 C26,4.061 25.439,3.5 24.75,3.5 L4.75,3.5 Z M27.5,7.5 L27.5,30.75 C27.5,32.542 28.958,34 30.75,34 C32.542,34 34,32.542 34,30.75 L34,8.75 C34,8.061 33.439,7.5 32.75,7.5 L27.5,7.5 Z M30.75,35.5 L8.75,35.5 C5.028,35.5 2,32.472 2,28.75 L2,4.75 C2,3.233 3.233,2 4.75,2 L24.75,2 C26.267,2 27.5,3.233 27.5,4.75 L27.5,6 L32.75,6 C34.267,6 35.5,7.233 35.5,8.75 L35.5,30.75 C35.5,33.369 33.369,35.5 30.75,35.5 L30.75,35.5 Z" id="Fill-1" fill="#000000"></path>
    </g>
</svg>