<?xml version="1.0" encoding="UTF-8"?>
<svg width="38px" height="38px" viewBox="0 0 38 38" version="1.1" xmlns="http://www.w3.org/2000/svg" xmlns:xlink="http://www.w3.org/1999/xlink">
    <g stroke="none" stroke-width="1" fill="none" fill-rule="evenodd">
        <path d="M12.6416,16.715 L24.8566,16.715 L24.8566,10.608 C24.8566,7.24 22.1176,4.5 18.7496,4.5 C15.3816,4.5 12.6416,7.24 12.6416,10.608 L12.6416,16.715 Z M8.7496,18.215 C8.0606,18.215 7.4996,18.776 7.4996,19.465 L7.4996,32.608 C7.4996,33.297 8.0606,33.858 8.7496,33.858 L28.7496,33.858 C29.4396,33.858 29.9996,33.297 29.9996,32.608 L29.9996,19.465 C29.9996,18.776 29.4396,18.215 28.7496,18.215 L8.7496,18.215 Z M28.7496,35.358 L8.7496,35.358 C7.2336,35.358 5.9996,34.124 5.9996,32.608 L5.9996,19.465 C5.9996,17.948 7.2336,16.715 8.7496,16.715 L11.1416,16.715 L11.1416,10.608 C11.1416,6.413 14.5546,3 18.7496,3 C22.9446,3 26.3566,6.413 26.3566,10.608 L26.3566,16.715 L28.7496,16.715 C30.2666,16.715 31.4996,17.948 31.4996,19.465 L31.4996,32.608 C31.4996,34.124 30.2666,35.358 28.7496,35.358 L28.7496,35.358 Z" id="Fill-1" fill="#000000"></path>
    </g>
</svg>