<?xml version="1.0" encoding="UTF-8"?>
<svg width="32px" height="32px" viewBox="0 0 32 32" version="1.1" xmlns="http://www.w3.org/2000/svg" xmlns:xlink="http://www.w3.org/1999/xlink">
    <g stroke="none" stroke-width="1" fill="none" fill-rule="evenodd">
        <path d="M18.870174,16.429525 C20.877193,15.372675 22.2491228,13.26185 22.2491228,10.825 C22.2491228,7.331875 19.4338085,4.5 15.9611111,4.5 C12.4884137,4.5 9.67309942,7.331875 9.67309942,10.825 C9.67309942,13.26185 11.0450292,15.372675 13.0520482,16.429525 C8.46694444,17.77675 5.1,22.215175 5.1,27.5 L26.8222222,27.5 C26.8222222,22.215175 23.4552778,17.77675 18.870174,16.429525 Z M10.8163743,10.8888889 C10.8163743,8.07039506 13.1240746,5.77777778 15.9611111,5.77777778 C18.7981477,5.77777778 21.105848,8.07039506 21.105848,10.8888889 C21.105848,13.7073827 18.7981477,16 15.9611111,16 C13.1240746,16 10.8163743,13.7073827 10.8163743,10.8888889 Z M15.9611111,17.2777778 C20.954364,17.2777778 25.080443,21.1982396 25.6194971,26.2222222 L6.30272515,26.2222222 C6.84177924,21.1982396 10.9678582,17.2777778 15.9611111,17.2777778 Z" id="Shape" stroke="#000000" stroke-width="0.3" fill="#000000" fill-rule="nonzero"></path>
    </g>
</svg>