<?xml version="1.0" encoding="UTF-8"?>
<svg width="45px" height="45px" viewBox="0 0 45 45" version="1.1" xmlns="http://www.w3.org/2000/svg" xmlns:xlink="http://www.w3.org/1999/xlink">
    <title>desktop_Checkout-Party</title>
    <g id="desktop_Checkout-Party" stroke="none" stroke-width="1" fill="none" fill-rule="evenodd">
        <path d="M24.7695007,17.60975 C24.3005007,18.07775 24.3005007,18.83775 24.7695007,19.30575 C25.2335007,19.76975 25.9875007,19.77575 26.4575007,19.31275 C27.0775007,19.00375 28.9985007,20.16175 30.0675007,19.09275 C31.1235007,18.03675 30.0015007,16.15275 30.2825007,15.49275 C30.9425007,15.21275 32.8255007,16.33575 33.8815007,15.27875 C34.9395007,14.22175 33.8165007,12.33875 34.0965007,11.67875 C34.7585007,11.39775 36.6395007,12.52075 37.6975007,11.46375 C38.7535007,10.40675 37.6305007,8.52375 37.9115007,7.86375 C38.5695007,7.58375 40.4555007,8.70475 41.5115007,7.64975 C42.5795007,6.58175 41.4235007,4.65575 41.7305007,4.03975 C42.1915007,3.57075 42.1895007,2.81775 41.7235007,2.35175 C41.2545007,1.88275 40.4965007,1.88275 40.0285007,2.35175 C39.0825007,3.29675 39.2675007,4.63075 39.4465007,5.58375 C38.4925007,5.40575 37.1585007,5.22075 36.2135007,6.16575 C35.2685007,7.11075 35.4535007,8.44475 35.6315007,9.39875 C34.6775007,9.22075 33.3435007,9.03575 32.3985007,9.98075 C31.4545007,10.92475 31.6385007,12.25875 31.8165007,13.21375 C30.8635007,13.03475 29.5295007,12.84975 28.5835007,13.79575 C27.6395007,14.73975 27.8245007,16.07375 28.0015007,17.02775 C27.0475007,16.84975 25.7135007,16.66475 24.7695007,17.60975 L24.7695007,17.60975 Z M20.5305007,15.06675 C20.9985007,15.53475 21.7575007,15.53475 22.2265007,15.06675 C27.7725007,9.52075 25.9855007,3.90375 25.9065007,3.66775 C25.6975007,3.03975 25.0185007,2.69975 24.3905007,2.90975 C23.7625007,3.11875 23.4225007,3.79775 23.6315007,4.42575 C23.6465007,4.46975 25.0405007,8.86075 20.5305007,13.37175 C20.0625007,13.83975 20.0625007,14.59875 20.5305007,15.06675 L20.5305007,15.06675 Z M29.8555007,24.39175 C30.3245007,24.85975 31.0825007,24.85975 31.5505007,24.39175 C36.0615007,19.88075 40.4535007,21.27575 40.4975007,21.29075 C41.1245007,21.49975 41.8035007,21.15975 42.0125007,20.53175 C42.2225007,19.90375 41.8825007,19.22475 41.2545007,19.01575 C41.0185007,18.93675 35.4025007,17.14975 29.8555007,22.69575 C29.3875007,23.16475 29.3875007,23.92375 29.8555007,24.39175 L29.8555007,24.39175 Z M14.2215007,13.74775 C13.6065007,13.13175 12.5575007,13.35775 12.2505007,14.17375 L2.07850069,41.30075 C1.71850069,42.26175 2.65950069,43.20475 3.62250069,42.84375 C4.98450069,42.33275 29.6555007,33.08175 30.7485007,32.67175 C31.5615007,32.36675 31.7925007,31.31875 31.1745007,30.70075 L14.2215007,13.74775 Z M13.8425007,16.75875 L18.7685007,21.68575 C19.1095007,25.78175 20.6265007,29.72075 23.1025007,32.97875 L17.9735007,34.90175 C14.1375007,30.91075 12.1805007,25.33175 12.7015007,19.80075 L13.8425007,16.75875 Z M10.6095007,37.66275 C9.42750069,36.31875 8.44350069,34.82175 7.67750069,33.19875 L10.5725007,25.47875 C11.2915007,29.42775 13.0645007,32.95975 15.5525007,35.80975 L10.6095007,37.66275 Z M6.55950069,36.18075 C7.06050069,37.00975 7.61750069,37.80275 8.22750069,38.55675 L5.24950069,39.67275 L6.55950069,36.18075 Z M25.4575007,32.09475 C23.6605007,29.90675 22.3705007,27.33375 21.6775007,24.59475 L28.1635007,31.07975 L25.4575007,32.09475 Z" id="Fill-1" fill="#1D1D1B"></path>
    </g>
</svg>