<?xml version="1.0" encoding="UTF-8"?>
<svg width="38px" height="38px" viewBox="0 0 38 38" version="1.1" xmlns="http://www.w3.org/2000/svg" xmlns:xlink="http://www.w3.org/1999/xlink">
    <g stroke="none" stroke-width="1" fill="none" fill-rule="evenodd">
        <path d="M26.167,24.75 C26.167,24.336 25.831,24 25.417,24 L12.083,24 C11.669,24 11.333,24.336 11.333,24.75 C11.333,25.164 11.669,25.5 12.083,25.5 L25.417,25.5 C25.831,25.5 26.167,25.164 26.167,24.75 L26.167,24.75 Z M26.167,19.416 C26.167,19.002 25.831,18.666 25.417,18.666 L22.75,18.666 C22.336,18.666 22,19.002 22,19.416 C22,19.83 22.336,20.166 22.75,20.166 L25.417,20.166 C25.831,20.166 26.167,19.83 26.167,19.416 L26.167,19.416 Z M26.167,14.083 C26.167,13.669 25.831,13.333 25.417,13.333 L22.75,13.333 C22.336,13.333 22,13.669 22,14.083 C22,14.497 22.336,14.833 22.75,14.833 L25.417,14.833 C25.831,14.833 26.167,14.497 26.167,14.083 L26.167,14.083 Z M14.75,14.833 C13.693,14.833 12.833,15.693 12.833,16.75 C12.833,17.807 13.693,18.666 14.75,18.666 C15.807,18.666 16.667,17.807 16.667,16.75 C16.667,15.693 15.807,14.833 14.75,14.833 L14.75,14.833 Z M14.75,20.166 C12.866,20.166 11.333,18.634 11.333,16.75 C11.333,14.866 12.866,13.333 14.75,13.333 C16.634,13.333 18.167,14.866 18.167,16.75 C18.167,18.634 16.634,20.166 14.75,20.166 L14.75,20.166 Z M7.75,9.5 C7.612,9.5 7.5,9.612 7.5,9.75 L7.5,29.083 C7.5,29.221 7.612,29.333 7.75,29.333 L29.75,29.333 C29.888,29.333 30,29.221 30,29.083 L30,9.75 C30,9.612 29.888,9.5 29.75,9.5 L7.75,9.5 Z M29.75,30.833 L7.75,30.833 C6.785,30.833 6,30.048 6,29.083 L6,9.75 C6,8.785 6.785,8 7.75,8 L29.75,8 C30.715,8 31.5,8.785 31.5,9.75 L31.5,29.083 C31.5,30.048 30.715,30.833 29.75,30.833 L29.75,30.833 Z" id="Fill-1" fill="#000000"></path>
    </g>
</svg>