<?xml version="1.0" encoding="UTF-8"?>
<svg width="38px" height="38px" viewBox="0 0 38 38" version="1.1" xmlns="http://www.w3.org/2000/svg" xmlns:xlink="http://www.w3.org/1999/xlink">
    <g stroke="none" stroke-width="1" fill="none" fill-rule="evenodd">
        <path d="M29.75,9 C30.715,9 31.5,9.785 31.5,10.75 L31.5,27.417 C31.5,28.382 30.715,29.167 29.75,29.167 L7.75,29.167 C6.785,29.167 6,28.382 6,27.417 L6,10.75 C6,9.785 6.785,9 7.75,9 L29.75,9 Z M30,13.817 L19.166,21.041 C19.04,21.125 18.896,21.167 18.75,21.167 C18.604,21.167 18.46,21.125 18.334,21.041 L7.5,13.817 L7.5,27.417 C7.5,27.555 7.612,27.667 7.75,27.667 L29.75,27.667 C29.888,27.667 30,27.555 30,27.417 L30,13.817 Z M29.75,10.5 L7.75,10.5 C7.612,10.5 7.5,10.612 7.5,10.75 L7.5,12.015 L18.75,19.516 L30,12.015 L30,10.75 C30,10.612 29.888,10.5 29.75,10.5 Z" id="Combined-Shape" fill="#000000"></path>
    </g>
</svg>