<svg role="img" xmlns="http://www.w3.org/2000/svg" width="48px" height="48px" aria-labelledby="instagramIcon" stroke="#2329D6" stroke-width="1" stroke-linecap="square" stroke-linejoin="miter" fill="none" color="#2329D6"> <title id="instagramIconTitle">Instagram</title> <symbol id="icon" viewBox="0 0 24 24">  <path d="M12,2 C9.28333333,2 8.94416667,2.0125 7.8775,2.06 C6.8125,2.11 6.0875,2.2775 5.45,2.525 C4.7925,2.78 4.23416667,3.1225 3.67833333,3.67833333 C3.1225,4.23416667 2.77916667,4.79166667 2.525,5.45 C2.2775,6.0875 2.10916667,6.8125 2.06,7.8775 C2.01,8.94416667 2,9.28333333 2,12 C2,14.7166667 2.0125,15.0558333 2.06,16.1225 C2.11,17.1866667 2.2775,17.9125 2.525,18.55 C2.78,19.2066667 3.1225,19.7658333 3.67833333,20.3216667 C4.23416667,20.8766667 4.79166667,21.2208333 5.45,21.475 C6.08833333,21.7216667 6.81333333,21.8908333 7.8775,21.94 C8.94416667,21.99 9.28333333,22 12,22 C14.7166667,22 15.0558333,21.9875 16.1225,21.94 C17.1866667,21.89 17.9125,21.7216667 18.55,21.475 C19.2066667,21.22 19.7658333,20.8766667 20.3216667,20.3216667 C20.8766667,19.7658333 21.2208333,19.2091667 21.475,18.55 C21.7216667,17.9125 21.8908333,17.1866667 21.94,16.1225 C21.99,15.0558333 22,14.7166667 22,12 C22,9.28333333 21.9875,8.94416667 21.94,7.8775 C21.89,6.81333333 21.7216667,6.08666667 21.475,5.45 C21.22,4.7925 20.8766667,4.23416667 20.3216667,3.67833333 C19.7658333,3.1225 19.2091667,2.77916667 18.55,2.525 C17.9125,2.2775 17.1866667,2.10916667 16.1225,2.06 C15.0558333,2.01 14.7166667,2 12,2 Z M12,3.8 C14.6691667,3.8 14.9875,3.81333333 16.0416667,3.85916667 C17.0166667,3.905 17.5458333,4.06666667 17.8975,4.205 C18.3658333,4.38583333 18.6975,4.6025 19.0491667,4.95166667 C19.3983333,5.30166667 19.615,5.63416667 19.7958333,6.1025 C19.9325,6.45416667 20.0958333,6.98333333 20.14,7.95833333 C20.1875,9.01333333 20.1983333,9.33 20.1983333,12 C20.1983333,14.67 20.1858333,14.9875 20.1366667,16.0416667 C20.0858333,17.0166667 19.9233333,17.5458333 19.7858333,17.8975 C19.5991667,18.3658333 19.3866667,18.6975 19.0366667,19.0491667 C18.6875,19.3983333 18.35,19.615 17.8866667,19.7958333 C17.5366667,19.9325 16.9991667,20.0958333 16.0241667,20.14 C14.9625,20.1875 14.65,20.1983333 11.975,20.1983333 C9.29916667,20.1983333 8.98666667,20.1858333 7.92583333,20.1366667 C6.95,20.0858333 6.4125,19.9233333 6.0625,19.7858333 C5.58833333,19.5991667 5.2625,19.3866667 4.91333333,19.0366667 C4.5625,18.6875 4.33833333,18.35 4.16333333,17.8866667 C4.02583333,17.5366667 3.86416667,16.9991667 3.81333333,16.0241667 C3.77583333,14.9741667 3.7625,14.65 3.7625,11.9875 C3.7625,9.32416667 3.77583333,8.99916667 3.81333333,7.93666667 C3.86416667,6.96166667 4.02583333,6.425 4.16333333,6.075 C4.33833333,5.6 4.5625,5.275 4.91333333,4.92416667 C5.2625,4.575 5.58833333,4.35 6.0625,4.17583333 C6.4125,4.0375 6.93833333,3.875 7.91333333,3.825 C8.97583333,3.7875 9.28833333,3.775 11.9625,3.775 L12,3.8 L12,3.8 Z M12,6.865 C9.1625,6.865 6.865,9.165 6.865,12 C6.865,14.8375 9.165,17.135 12,17.135 C14.8375,17.135 17.135,14.835 17.135,12 C17.135,9.1625 14.835,6.865 12,6.865 Z M12,15.3333333 C10.1583333,15.3333333 8.66666667,13.8416667 8.66666667,12 C8.66666667,10.1583333 10.1583333,8.66666667 12,8.66666667 C13.8416667,8.66666667 15.3333333,10.1583333 15.3333333,12 C15.3333333,13.8416667 13.8416667,15.3333333 12,15.3333333 Z M18.5383333,6.6625 C18.5383333,7.325 18,7.8625 17.3383333,7.8625 C16.6758333,7.8625 16.1383333,7.32416667 16.1383333,6.6625 C16.1383333,6.00083333 16.6766667,5.46333237 17.3383333,5.46333237 C17.9991667,5.4625 18.5383333,6.00083333 18.5383333,6.6625 Z" id="Shape"></path> </symbol></svg>
