<svg role="img" xmlns="http://www.w3.org/2000/svg" width="48px" height="48px" aria-labelledby="linkedinIcon" stroke="#2329D6" stroke-width="1" stroke-linecap="square" stroke-linejoin="miter" fill="none" color="#2329D6"> <title id="linkedinIconTitle">Linkedin</title> <symbol id="icon" viewBox="0 0 24 24"> <path d="M19.0391667,19.0433333 L16.0775,19.0433333 L16.0775,14.4025 C16.0775,13.2958333 16.055,11.8716667 14.5341667,11.8716667 C12.99,11.8716667 12.7541667,13.0758333 12.7541667,14.3208333 L12.7541667,19.0433333 L9.7925,19.0433333 L9.7925,9.5 L12.6375,9.5 L12.6375,10.8008333 L12.6758333,10.8008333 C13.0733333,10.0508333 14.04,9.25916667 15.4841667,9.25916667 C18.485,9.25916667 19.04,11.2341667 19.04,13.805 L19.04,19.0433333 L19.0391667,19.0433333 Z M6.4475,8.19416667 C5.49416667,8.19416667 4.72833333,7.4225 4.72833333,6.47333333 C4.72833333,5.525 5.495,4.75416667 6.4475,4.75416667 C7.3975,4.75416667 8.1675,5.525 8.1675,6.47333333 C8.1675,7.4225 7.39666667,8.19416667 6.4475,8.19416667 Z M7.9325,19.0433333 L4.9625,19.0433333 L4.9625,9.5 L7.9325,9.5 L7.9325,19.0433333 Z M20.5208333,2 L3.47583333,2 C2.66,2 2,2.645 2,3.44083333 L2,20.5591667 C2,21.3558333 2.66,22 3.47583333,22 L20.5183333,22 C21.3333333,22 22,21.3558333 22,20.5591667 L22,3.44083333 C22,2.645 21.3333333,2 20.5183333,2 L20.5208333,2 Z" id="Shape"></path> </symbol></svg>