<svg role="img" xmlns="http://www.w3.org/2000/svg" width="48px" height="48px" aria-labelledby="personIconTitle" stroke="#2329D6" stroke-width="1" stroke-linecap="square" stroke-linejoin="miter" fill="none" color="#2329D6"> <title id="personIconTitle">Person</title> <symbol id="icon" viewBox="0 0 24 24">  <path d="M4.11037234,20 C3.70345745,19.9140294 3.5,19.89734 3.5,19.5821145 L3.5,18.2495704 C3.54521277,17.9200164 3.71099291,17.6835973 3.99734042,17.540313 C4.28368794,17.3970286 6.07712765,16.5874723 9.37765956,15.1116438 C9.76950353,14.8823889 9.79964538,14.6029845 9.4680851,14.2734306 C8.97074467,13.7790997 7.50132978,12.231629 7.45611701,10.3832613 C7.41090424,8.53489363 7.45611701,7.97608478 7.45611701,7.05190093 C7.45611701,6.13043307 9.43380321,4.01244076 11.9886968,4 C14.5661968,4.01244076 16.5438829,6.13043307 16.5438829,7.05190093 C16.5438829,7.97608478 16.5890957,8.53489363 16.5438829,10.3832613 C16.4986702,12.231629 15.0292553,13.7790997 14.5319149,14.2734306 C14.2003546,14.6029845 14.2304964,14.8823889 14.6223404,15.1116438 C17.9228723,16.5874723 19.7163121,17.3970286 20.0026595,17.540313 C20.289007,17.6835973 20.4547872,17.9200164 20.5,18.2495704 L20.5,19.5821145 C20.5,19.89734 20.2965425,19.9140294 19.8896276,20 C18.0524018,20 7.65193985,20 4.11037234,20 Z" id="Path"></path></symbol></svg>