<svg role="img" xmlns="http://www.w3.org/2000/svg" width="48px" height="48px" aria-labelledby="iconTwitter" stroke="#2329D6" stroke-width="1" stroke-linecap="square" stroke-linejoin="miter" fill="none" color="#2329D6"> <title id="iconTwitterTitle">Twitter</title> <symbol id="icon" viewBox="0 0 24 24"> <path d="M8.16087442,20.762239 C16.1774221,20.762239 20.5607655,14.1194402 20.5607655,8.36234795 C20.5607655,8.1725537 20.5607655,7.98275945 20.5517277,7.80200302 C21.4012829,7.18743116 22.1423842,6.41921633 22.7298426,5.54254765 C21.95259,5.88598487 21.1120726,6.12096823 20.2263661,6.22942208 C21.1301482,5.68715279 21.8170227,4.83759758 22.1423842,3.81632375 C21.3018668,4.31340393 20.3709712,4.67491679 19.3768109,4.87374886 C18.5814826,4.02419365 17.4517549,3.5 16.1954977,3.5 C13.7914372,3.5 11.8392678,5.45216944 11.8392678,7.85622995 C11.8392678,8.19966716 11.875419,8.53406656 11.9567594,8.85039031 C8.33259303,8.66963388 5.12416641,6.93437216 2.9731649,4.29532829 C2.60261422,4.93701361 2.3857065,5.68715279 2.3857065,6.48248108 C2.3857065,7.99179727 3.15392133,9.32939485 4.32883812,10.1066475 C3.61485022,10.0885718 2.94605143,9.88973978 2.35859304,9.5643782 C2.35859304,9.58245385 2.35859304,9.60052949 2.35859304,9.61860513 C2.35859304,11.7334554 3.8588714,13.4867927 5.85622995,13.8934947 C5.49471709,13.9929107 5.10609076,14.0471377 4.70842662,14.0471377 C4.42825415,14.0471377 4.15711951,14.0200242 3.88598487,13.9657973 C4.43729198,15.701059 6.0460242,16.9573162 7.95300453,16.9934674 C6.46176398,18.1593464 4.58189712,18.8552587 2.53934947,18.8552587 C2.18687443,18.8552587 1.84343722,18.837183 1.5,18.7919939 C3.40698033,20.0392133 5.70258698,20.762239 8.16087442,20.762239" id="Path" stroke="#2329D6"></path> </symbol></svg>