<?xml version="1.0" encoding="UTF-8"?>
<svg width="18px" height="17px" viewBox="0 0 18 17" version="1.1" xmlns="http://www.w3.org/2000/svg" xmlns:xlink="http://www.w3.org/1999/xlink">
    <title>Account 2</title>
    <g id="Account-2" stroke="none" stroke-width="1" fill="none" fill-rule="evenodd">
        <path d="M12.9952568,3.88576916 C12.9952568,4.7596446 13.0368348,5.2880344 12.9952568,7.03578528 C12.9536788,8.78353615 11.6023934,10.2467694 11.1450352,10.7141912 C10.8401298,11.0258057 10.8678485,11.2900006 11.2281913,11.5067759 C14.2633862,12.9022669 15.9126474,13.6677547 16.1759749,13.8032392 C16.4393023,13.9387238 16.591755,14.1622733 16.633333,14.4738878 L16.633333,15.7338943 C16.633333,16.0319603 16.4462319,16.0477412 16.0720298,16.1290319 L1.56130318,16.1290319 C1.18710106,16.0477412 1,16.0319603 1,15.7338943 L1,14.4738878 C1.04157801,14.1622733 1.19403073,13.9387238 1.45735815,13.8032392 C1.72068556,13.6677547 3.36994676,12.9022669 6.40514173,11.5067759 C6.76548451,11.2900006 6.79320319,11.0258057 6.48829776,10.7141912 C6.03093961,10.2467694 4.67965418,8.78353615 4.63807616,7.03578528 C4.59649815,5.2880344 4.63807616,4.7596446 4.63807616,3.88576916 C4.63807616,3.01446187 6.45677187,1.01176354 8.806272,1 C11.1765611,1.01176354 12.9952568,3.01446187 12.9952568,3.88576916 Z" id="Combined-Shape" stroke="#000000" stroke-width="1.2"></path>
    </g>
</svg>