<?xml version="1.0" encoding="UTF-8"?>
<svg width="32px" height="32px" viewBox="0 0 32 32" version="1.1" xmlns="http://www.w3.org/2000/svg" xmlns:xlink="http://www.w3.org/1999/xlink">
    <title>desktop_OrderInvoice-RozeRood</title>
    <g id="desktop_OrderInvoice-RozeRood" stroke="none" stroke-width="1" fill="none" fill-rule="evenodd">
        <path d="M21,8.5 L24.75,8.5 C25.4403559,8.5 26,9.05964406 26,9.75 L26,23.5 C26,24.8807119 24.8807119,26 23.5,26 C22.1192881,26 21,24.8807119 21,23.5 L21,7.25 C21,6.55964406 20.4403559,6 19.75,6 L7.25,6 C6.55964406,6 6,6.55964406 6,7.25 L6,22.25 C6,24.3210678 7.67893219,26 9.75,26 L23.5,26" id="Path" stroke="#FF4A55" stroke-width="1.7" stroke-linecap="round" stroke-linejoin="round"></path>
        <path d="M13.9378315,21.2333333 L13.9378315,20.2485546 C14.3586771,20.2317207 14.7500635,20.1622812 15.1119908,20.040236 C15.473918,19.9181908 15.7895522,19.7414356 16.0588934,19.5099705 C16.3282346,19.2785054 16.5407616,18.9881219 16.6964745,18.6388201 C16.8521874,18.2895182 16.9300438,17.8791937 16.9300438,17.4078466 C16.9300438,16.9533333 16.8458747,16.5703638 16.6775365,16.2589381 C16.5091982,15.9475123 16.28615,15.686588 16.0083919,15.4761652 C15.7306338,15.2657424 15.4107911,15.0931957 15.0488639,14.9585251 C14.6869367,14.8238545 14.3165925,14.7060177 13.9378315,14.6050147 L13.9378315,14.6050147 L13.9378315,11.9410619 C14.3923447,11.9410619 14.7227085,12.0546903 14.9289229,12.2819469 C15.1351373,12.5092035 15.2466614,12.8374631 15.2634952,13.2667257 L15.2634952,13.2667257 L16.7027872,13.2667257 C16.7027872,12.854297 16.6291392,12.4923697 16.4818433,12.180944 C16.3345473,11.8695182 16.1367498,11.6128024 15.8884509,11.4107965 C15.640152,11.2087906 15.3476643,11.0572861 15.0109878,10.9562832 C14.6743113,10.8552802 14.3165925,10.8047788 13.9378315,10.8047788 L13.9378315,10.8047788 L13.9378315,9.82 L13.3949406,9.82 L13.3949406,10.8047788 C13.0161795,10.8047788 12.6542523,10.8594887 12.3091589,10.9689086 C11.9640655,11.0783284 11.6589524,11.2361455 11.3938197,11.4423599 C11.1286869,11.6485742 10.9182641,11.9052901 10.7625512,12.2125074 C10.6068383,12.5197247 10.5289819,12.8753392 10.5289819,13.279351 C10.5289819,13.7422812 10.613151,14.1294592 10.7814893,14.440885 C10.9498275,14.7523107 11.1707715,15.0111308 11.4443211,15.2173451 C11.7178708,15.4235595 12.0250881,15.5918977 12.3659731,15.7223599 C12.706858,15.852822 13.0498472,15.9643461 13.3949406,16.0569322 L13.3949406,16.0569322 L13.3949406,19.1122714 C12.8141736,19.0954376 12.3975365,18.9270993 12.1450291,18.6072566 C11.8925217,18.287414 11.7704765,17.8497345 11.7788934,17.2942183 L11.7788934,17.2942183 L10.3396014,17.2942183 C10.3311845,17.7655654 10.400624,18.1822026 10.54792,18.5441298 C10.6952159,18.906057 10.9035345,19.2111701 11.1728757,19.459469 C11.4422169,19.7077679 11.766268,19.8992527 12.1450291,20.0339233 C12.5237902,20.1685939 12.9404273,20.2401377 13.3949406,20.2485546 L13.3949406,20.2485546 L13.3949406,21.2333333 L13.9378315,21.2333333 Z M13.3949406,14.4661357 C13.2181854,14.4240511 13.0435345,14.3714454 12.8709878,14.3083186 C12.6984411,14.2451917 12.5469367,14.1631268 12.4164745,14.0621239 C12.2860124,13.9611209 12.1786967,13.8390757 12.0945276,13.6959882 C12.0103585,13.5529007 11.9682739,13.380354 11.9682739,13.1783481 C11.9682739,12.7322517 12.0924234,12.4145133 12.3407223,12.2251327 C12.5890212,12.0357522 12.9404273,11.9410619 13.3949406,11.9410619 L13.3949406,11.9410619 L13.3949406,14.4661357 Z M13.9378315,19.1122714 L13.9378315,16.1705605 C14.1314204,16.2210619 14.320801,16.2799803 14.5059731,16.3473156 C14.6911451,16.4146509 14.8573791,16.5030285 15.0046751,16.6124484 C15.1519711,16.7218682 15.2698079,16.8565388 15.3581854,17.0164602 C15.446563,17.1763815 15.4907518,17.374179 15.4907518,17.6098525 C15.4907518,18.1148673 15.3455601,18.4831072 15.0551766,18.7145723 C14.7647931,18.9460374 14.3923447,19.0786037 13.9378315,19.1122714 L13.9378315,19.1122714 Z" id="$" fill="#FF4A55" fill-rule="nonzero"></path>
    </g>
</svg>