<svg height="933" viewBox="0 0 1440 933" width="1440" xmlns="http://www.w3.org/2000/svg" xmlns:xlink="http://www.w3.org/1999/xlink"><defs><path id="a" d="m37.4677035 0h779.3813575c20.692842 0 37.467704 16.7655816 37.467704 37.4576302v1118.6251698c0 20.68728-16.775334 37.45763-37.467704 37.45763h-779.3813575c-20.6928413 0-37.4677035-16.76558-37.4677035-37.45763v-1118.6251698c0-20.6872779 16.7753333-37.4576302 37.4677035-37.4576302z"/><filter id="b" height="110.9%" width="115.2%" x="-7.6%" y="-4.6%"><feOffset dx="0" dy="10" in="SourceAlpha" result="shadowOffsetOuter1"/><feGaussianBlur in="shadowOffsetOuter1" result="shadowBlurOuter1" stdDeviation="20"/><feColorMatrix in="shadowBlurOuter1" type="matrix" values="0 0 0 0 0   0 0 0 0 0   0 0 0 0 0  0 0 0 0.0800498188 0"/></filter></defs><g fill="none" fill-rule="evenodd" transform="matrix(0 1 -1 0 1317.5 39.5)"><g><use fill="#000" filter="url(#b)" xlink:href="#a"/><use fill="#fff" fill-rule="evenodd" xlink:href="#a"/></g><g fill="#fff" stroke="#e9e9e9"><path d="m426.983219 1177.94431c-11.588712 0-20.983219-9.38955-20.983219-20.97215 0-11.58261 9.394507-20.97216 20.983219-20.97216s20.983219 9.38955 20.983219 20.97216c0 11.5826-9.394507 20.97215-20.983219 20.97215z"/><ellipse cx="426.725617" cy="44.721544" rx="7.725617" ry="7.721544"/></g></g></svg>