<svg xmlns="http://www.w3.org/2000/svg" width="138" height="25"><defs/><g fill="#000" fill-rule="nonzero"><path d="M9.12 23.9c1.46 0 2.75-.16 3.86-.5a8.15 8.15 0 002.79-1.43 5.93 5.93 0 001.7-2.17c.37-.84.56-1.75.56-2.73 0-1.2-.25-2.19-.76-2.96a6.39 6.39 0 00-1.82-1.84c-.7-.46-1.4-.8-2.11-1a330.42 330.42 0 01-4.92-1.28c-.83-.22-1.48-.44-1.95-.66a2.14 2.14 0 01-.95-.72c-.16-.26-.24-.6-.24-1.02 0-.46.1-.84.3-1.14.2-.3.46-.55.77-.75.3-.2.65-.34 1.03-.42.38-.08.76-.12 1.14-.12.58 0 1.12.05 1.6.15.5.1.93.27 1.31.5.38.25.69.58.92 1 .23.42.36.95.4 1.59h4.56c0-1.24-.23-2.3-.7-3.17a6.15 6.15 0 00-1.9-2.14 8.04 8.04 0 00-2.75-1.22c-1.03-.25-2.1-.37-3.23-.37-.96 0-1.92.13-2.88.39s-1.82.66-2.58 1.2A6.39 6.39 0 001.43 5.1a5.6 5.6 0 00-.7 2.87c0 .98.18 1.81.55 2.5a5.3 5.3 0 001.45 1.73c.6.46 1.28.83 2.04 1.12a56.36 56.36 0 004.65 1.33c.76.19 1.44.4 2.04.64.6.24 1.09.54 1.46.9.37.36.55.83.55 1.4 0 .55-.14 1-.42 1.34-.28.35-.63.63-1.05.83-.42.2-.87.33-1.35.4-.48.07-.93.1-1.35.1-.62 0-1.22-.07-1.8-.22A4.48 4.48 0 016 19.36a3.4 3.4 0 01-1.04-1.21 3.93 3.93 0 01-.39-1.83H0a7.07 7.07 0 00.72 3.42c.5.96 1.18 1.75 2.03 2.37a8.64 8.64 0 002.94 1.36c1.1.3 2.25.44 3.43.44zm18.78-.08c1.22 0 2.33-.2 3.32-.57a7.06 7.06 0 004.15-4.2c.38-1 .57-2.12.57-3.36 0-1.24-.19-2.37-.57-3.38a7.26 7.26 0 00-1.62-2.58 7.23 7.23 0 00-2.53-1.65 8.98 8.98 0 00-3.32-.58c-1.22 0-2.32.2-3.3.58-.98.4-1.82.94-2.52 1.65a7.26 7.26 0 00-1.62 2.58 9.52 9.52 0 00-.57 3.38c0 1.24.2 2.36.57 3.36a7.09 7.09 0 004.14 4.2c.98.38 2.08.57 3.3.57zm0-3.18c-.72 0-1.32-.14-1.8-.42a3.28 3.28 0 01-1.15-1.13c-.3-.47-.5-1-.62-1.59a9.08 9.08 0 010-3.64c.12-.6.33-1.13.62-1.6.29-.45.67-.83 1.15-1.12a3.43 3.43 0 011.8-.43c.72 0 1.33.14 1.82.43.49.3.88.67 1.17 1.13.29.46.5.99.61 1.59a9.3 9.3 0 010 3.64 4.84 4.84 0 01-.61 1.6 3.24 3.24 0 01-2.99 1.54zm13.95 2.79l3.24-4.9 3.24 4.9h4.86l-5.73-8.25 5.1-7.26h-4.7l-2.7 4.05-2.74-4.05h-4.86l5.1 7.35-5.58 8.16h4.77zm22.17.39a5.9 5.9 0 004.37-1.95c.6-.66 1.1-1.5 1.48-2.54.38-1.03.57-2.25.57-3.67s-.19-2.65-.57-3.68a7.52 7.52 0 00-1.48-2.53 5.91 5.91 0 00-4.37-1.95c-.96 0-1.88.18-2.77.55-.9.37-1.6.96-2.12 1.76h-.06V2h-4.26v21.42h4.05v-1.98h.06a3.88 3.88 0 002.04 1.83c.9.36 1.92.54 3.06.54zm-1.47-3.18a3.14 3.14 0 01-2.76-1.5c-.3-.46-.52-1-.66-1.6a8.16 8.16 0 010-3.74c.14-.6.36-1.13.66-1.6a3.14 3.14 0 012.76-1.5 3.12 3.12 0 012.76 1.5c.3.47.52 1 .66 1.6a8.3 8.3 0 010 3.75c-.14.6-.36 1.13-.66 1.59-.3.46-.67.82-1.12 1.1-.45.26-1 .4-1.64.4zm15.21 3.18c.96 0 1.9-.14 2.82-.42a5.55 5.55 0 002.4-1.47 6.4 6.4 0 00.3 1.5h4.32c-.2-.32-.34-.8-.42-1.44a16.2 16.2 0 01-.12-2.01V11.9c0-.94-.2-1.7-.63-2.27a4.32 4.32 0 00-1.62-1.33 7.25 7.25 0 00-2.19-.65c-.8-.1-1.59-.16-2.37-.16-.86 0-1.71.08-2.56.25-.85.17-1.62.46-2.3.86a5.1 5.1 0 00-1.68 1.59 4.95 4.95 0 00-.75 2.49h4.26c.08-.84.36-1.44.84-1.8a3.23 3.23 0 011.98-.54c.38 0 .74.02 1.07.07.33.05.62.15.87.3s.45.36.6.63c.15.27.22.64.22 1.1.02.44-.1.77-.39 1-.28.23-.66.4-1.14.53-.48.12-1.03.2-1.65.27-.62.06-1.25.14-1.89.24-.64.1-1.27.23-1.9.4-.63.17-1.2.43-1.68.77-.5.34-.9.8-1.2 1.36-.31.57-.47 1.3-.47 2.18 0 .8.14 1.49.4 2.07.28.58.65 1.06 1.13 1.44.48.38 1.04.66 1.68.84.64.18 1.33.27 2.07.27zm1.6-2.82c-.35 0-.68-.03-1-.1a2.4 2.4 0 01-.84-.3 1.61 1.61 0 01-.57-.62 2 2 0 01-.2-.96c0-.4.06-.73.2-1 .14-.25.33-.47.56-.64.23-.17.5-.3.8-.4.32-.1.63-.18.95-.24l1.02-.15c.34-.04.67-.1.98-.15.3-.06.6-.14.87-.23s.5-.21.67-.37v1.59c0 .24-.02.56-.07.96-.05.4-.19.8-.4 1.18a2.8 2.8 0 01-1.03 1c-.46.29-1.1.43-1.95.43zm17.54 2.82c.88 0 1.75-.09 2.6-.26.85-.17 1.6-.46 2.26-.88.66-.42 1.2-.98 1.6-1.67.42-.69.62-1.54.62-2.56 0-.72-.14-1.33-.42-1.82-.28-.49-.65-.9-1.1-1.23-.47-.33-1-.6-1.58-.8a18 18 0 00-1.82-.5 71.9 71.9 0 00-1.77-.4c-.58-.11-1.1-.25-1.54-.4a3.24 3.24 0 01-1.1-.58 1.17 1.17 0 01-.42-.93c0-.32.08-.58.24-.77.16-.19.36-.33.59-.43.23-.1.48-.17.76-.2s.54-.04.78-.04c.76 0 1.42.14 1.98.43.56.3.87.85.93 1.67h4.05a5.09 5.09 0 00-.73-2.39 4.86 4.86 0 00-1.55-1.51 6.47 6.47 0 00-2.11-.81 13.32 13.32 0 00-4.9-.01c-.8.14-1.53.4-2.17.77-.64.37-1.15.88-1.54 1.52a4.67 4.67 0 00-.59 2.46 3.32 3.32 0 001.53 2.9c.46.3.99.55 1.58.74.59.2 1.2.36 1.81.5 1.52.32 2.7.64 3.56.96.85.32 1.27.8 1.27 1.44 0 .38-.09.7-.27.94-.18.25-.4.45-.67.6-.27.15-.57.26-.9.33a4.56 4.56 0 01-2.16-.04c-.4-.1-.74-.26-1.04-.47a2.34 2.34 0 01-1.02-2h-4.05c.04 1.05.28 1.91.7 2.6.44.7.99 1.25 1.66 1.67.67.42 1.43.72 2.3.9.85.18 1.73.27 2.63.27zm16.74 0c1.76 0 3.26-.4 4.5-1.2 1.24-.8 2.16-2.13 2.76-4h-3.75c-.14.49-.52.94-1.14 1.37a3.8 3.8 0 01-2.22.65c-1.2 0-2.12-.31-2.76-.93-.64-.62-.99-1.62-1.05-3h11.2c.07-1.2-.03-2.35-.3-3.45a8.44 8.44 0 00-1.37-2.94 6.89 6.89 0 00-5.87-2.82 7.62 7.62 0 00-7.35 4.95c-.38 1-.57 2.08-.57 3.24 0 1.2.19 2.3.56 3.3a6.86 6.86 0 004.06 4.25c.98.38 2.08.58 3.3.58zm3.27-9.81h-6.93c.02-.3.09-.64.2-1.02a3.13 3.13 0 011.65-1.94 3.7 3.7 0 011.7-.34c1.03 0 1.8.28 2.32.84.5.56.86 1.38 1.06 2.46zM131.1 12.72a6.24 6.24 0 004.36-1.76 6.1 6.1 0 001.36-2c.33-.78.5-1.65.5-2.6 0-.95-.17-1.82-.5-2.6A6.1 6.1 0 00131.1 0a6.35 6.35 0 00-4.4 1.75 6.1 6.1 0 00-1.36 2c-.33.79-.5 1.66-.5 2.6 0 .91.16 1.76.47 2.53a5.92 5.92 0 003.26 3.35c.77.32 1.61.49 2.53.49zm0-1.1a4.65 4.65 0 01-4.56-3.21 6.02 6.02 0 01-.34-2.05c0-.77.13-1.48.38-2.13a4.65 4.65 0 014.52-3.13 4.74 4.74 0 014.49 3.13c.25.65.37 1.36.37 2.13 0 .78-.12 1.5-.37 2.13a4.68 4.68 0 01-4.49 3.12zM129.84 10V6.99h1.09l1.82 3h1.3l-1.97-3.09c.53-.05.96-.23 1.31-.53.35-.29.53-.75.53-1.39 0-.71-.22-1.23-.65-1.55a3.22 3.22 0 00-1.92-.47h-2.67V10h1.16zm1.3-4h-1.3V3.94h1.4l.52.03c.18.02.35.06.5.13.14.07.26.16.36.29.1.12.14.3.14.5 0 .27-.04.47-.13.61a.95.95 0 01-.36.33c-.15.08-.32.13-.52.15l-.62.02z"/></g></svg>