<?xml version="1.0" encoding="UTF-8"?>
<svg width="48px" height="48px" viewBox="0 0 48 48" version="1.1" xmlns="http://www.w3.org/2000/svg" xmlns:xlink="http://www.w3.org/1999/xlink">
    <title>icon_logo_materialui</title>
    <g id="icon_logo_materialui" stroke="none" stroke-width="1" fill="none" fill-rule="evenodd">
        <g id="Group-22-Copy" transform="translate(9.000000, 11.000000)" fill="#FFFFFF" fill-rule="nonzero">
            <polygon id="Path" points="0 13.7116667 0 0 11.25 6.85583333 11.25 11.4263889 3.75 6.85583333 3.75 15.9969445"></polygon>
            <polygon id="Path" points="11.25 6.85583333 22.5 0 22.5 13.7116667 15 18.2822222 11.25 15.9969445 18.75 11.4263889 18.75 6.85583333 11.25 11.4263889"></polygon>
            <polygon id="Path" points="11.25 15.9969445 11.25 20.5675 18.75 25.1380555 18.75 20.5675"></polygon>
            <polygon id="Path" points="18.75 25.1380555 30 18.2822222 30 9.14111112 26.25 11.4263889 26.25 15.9969445 18.75 20.5675"></polygon>
            <polygon id="Path" points="26.25 6.85583333 26.25 2.28527778 30 0 30 4.57055555"></polygon>
        </g>
    </g>
</svg>