<?xml version="1.0" encoding="UTF-8"?>
<svg width="48px" height="48px" viewBox="0 0 48 48" version="1.1" xmlns="http://www.w3.org/2000/svg" xmlns:xlink="http://www.w3.org/1999/xlink">
    <title>icon_logo_apollo</title>
    <g id="icon_logo_apollo" stroke="none" stroke-width="1" fill="none" fill-rule="evenodd">
        <g id="Shape-2-Copy" transform="translate(6.000000, 7.000000)" fill="#FFFFFF" fill-rule="nonzero">
            <path d="M22.5319219,25.1041781 L26.4173906,25.1041781 L20.2148438,9.00683437 L15.9188906,9.00683437 L9.71634375,25.1041781 L13.6020938,25.1041781 L14.6157188,22.3774594 L20.4762656,22.3774594 L19.4153906,19.3602094 L15.5566406,19.3602094 L18.0667969,12.4338656 L22.5319219,25.1041781 Z M35.3445469,13.186125 C35.2064531,12.688875 34.6928906,12.3967969 34.1935313,12.5354531 C33.6961406,12.6735469 33.404625,13.1887969 33.5427188,13.6861875 C33.9326719,15.0903281 34.13025,16.5417188 34.13025,18 C34.13025,26.89425 26.89425,34.1299688 18,34.1299688 C9.10575,34.1299688 1.86989063,26.89425 1.86989063,18 C1.86989063,9.10560938 9.10575,1.86975 18,1.86975 C21.7677656,1.86975 25.4134688,3.20821875 28.2907969,5.590125 C28.1788594,5.8573125 28.1167031,6.15051563 28.1167031,6.45820313 C28.1167031,7.700625 29.1238594,8.70778125 30.3662813,8.70778125 C31.6087031,8.70778125 32.6158594,7.700625 32.6158594,6.45820313 C32.6158594,5.21578125 31.6087031,4.208625 30.3662813,4.208625 C30.1270781,4.208625 29.896875,4.24673438 29.6805938,4.31592188 C26.4405938,1.55475 22.2908906,0 18,0 C8.07482813,0 0,8.0746875 0,18 C0,27.9251719 8.07482813,35.9998594 18,35.9998594 C27.9251719,35.9998594 36,27.9251719 36,18 C36,16.3726875 35.7796406,14.7529688 35.3445469,13.186125 Z" id="Shape"></path>
        </g>
    </g>
</svg>