<?xml version="1.0" encoding="UTF-8"?>
<svg width="48px" height="48px" viewBox="0 0 48 48" version="1.1" xmlns="http://www.w3.org/2000/svg" xmlns:xlink="http://www.w3.org/1999/xlink">
    <title>icon_logo_adobe</title>
    <g id="icon_logo_adobe" stroke="none" stroke-width="1" fill="none" fill-rule="evenodd">
        <path d="M34.4343993,40.1994159 C33.7667101,40.2116082 33.1578534,39.819093 32.8933218,39.2059206 L24.7360616,20.1328559 C24.6923244,19.9803877 24.5538219,19.8746097 24.3952179,19.8725448 C24.2366139,19.8704798 24.0954043,19.9726161 24.0477125,20.1238939 L18.9641381,32.2338296 C18.9080979,32.3668786 18.9224088,32.5191509 19.0022573,32.6394287 C19.0821058,32.7597066 19.2168811,32.8320066 19.3612505,32.8320102 L24.9491231,32.8320102 C25.2951743,32.8320104 25.6076658,33.0389966 25.7426626,33.3576301 L28.1891361,38.8019311 C28.3208094,39.1122294 28.2881422,39.4678754 28.1021454,39.7489948 C27.9161486,40.0301142 27.6015991,40.1992585 27.2645191,40.1994159 L6.92189728,40.1994159 C6.61113086,40.1975778 6.32194308,40.040203 6.15164336,39.7802469 C5.98134365,39.5202909 5.95257306,39.1923143 6.07501269,38.9066787 L19.0144783,8.0925525 C19.2851236,7.42510188 19.9370649,6.99163758 20.6572483,7 L28.1203816,7 C28.8408592,6.99076345 29.4932924,7.42451515 29.7633018,8.0925525 L42.7923455,38.9066787 C42.9147493,39.1918374 42.8863643,39.5193269 42.7167223,39.7791726 C42.5470804,40.0390183 42.2586816,40.1967561 41.9483735,40.1994159 L34.4343993,40.1994159 Z" id="_256" fill="#FFFFFF" fill-rule="nonzero"></path>
    </g>
</svg>