<?xml version="1.0" encoding="UTF-8"?>
<svg width="48px" height="48px" viewBox="0 0 48 48" version="1.1" xmlns="http://www.w3.org/2000/svg" xmlns:xlink="http://www.w3.org/1999/xlink">
    <title>icon_logo_graphql</title>
    <g id="icon_logo_graphql" stroke="none" stroke-width="1" fill="none" fill-rule="evenodd">
        <g id="Group-20-Copy" transform="translate(8.000000, 5.000000)" fill="#FFFFFF" fill-rule="nonzero">
            <polygon id="Rectangle" transform="translate(9.597479, 15.186363) rotate(-149.999272) translate(-9.597479, -15.186363) " points="8.47956322 -0.150691523 10.0261993 -0.114972989 10.7153949 30.5234183 9.16875879 30.4876998"></polygon>
            <rect id="Rectangle" x="1" y="26.3513514" width="29" height="2.10810811"></rect>
            <polygon id="Rectangle" transform="translate(9.600982, 30.764725) rotate(-149.999272) translate(-9.600982, -30.764725) " points="0.964818652 29.7717517 18.2014261 30.1698197 18.2371446 31.7576976 1.00053719 31.3596296"></polygon>
            <polygon id="Rectangle" transform="translate(22.395360, 7.404227) rotate(-149.999272) translate(-22.395360, -7.404227) " points="13.7591966 6.41125446 30.995804 6.80932246 31.0315225 8.39720038 13.7949151 7.99913237"></polygon>
            <polygon id="Rectangle" transform="translate(9.605063, 7.398103) rotate(-120.000728) translate(-9.605063, -7.398103) " points="8.61209038 -1.23805962 10.1999683 -1.20234108 10.5980363 16.0342663 9.01015838 15.9985478"></polygon>
            <polygon id="Rectangle" transform="translate(22.405830, 15.186654) rotate(-120.000728) translate(-22.405830, -15.186654) " points="7.06877551 14.0687383 37.7071668 14.7579338 37.7428854 16.30457 7.10449405 15.6153744"></polygon>
            <rect id="Rectangle" x="28" y="10.5405405" width="2" height="17.9189189"></rect>
            <rect id="Rectangle-Copy-41" transform="translate(2.000000, 19.500000) scale(-1, 1) translate(-2.000000, -19.500000) " x="1" y="10.5405405" width="2" height="17.9189189"></rect>
            <polygon id="Rectangle" transform="translate(22.395295, 30.755781) rotate(-120.000728) translate(-22.395295, -30.755781) " points="21.5286885 23.2445859 22.9156903 23.2757858 23.2619019 38.2669757 21.8749001 38.2357758"></polygon>
            <path d="M31.5942259,27.9319765 C30.7700314,29.4446665 28.9327645,29.9609738 27.4990095,29.0914035 C26.0652545,28.2218333 25.575889,26.2834162 26.4000835,24.7707262 C27.224278,23.2580362 29.0615449,22.7417289 30.4952999,23.6112992 C31.9376402,24.4899275 32.4270057,26.4192865 31.5942259,27.9319765" id="Path"></path>
            <path d="M5.5995367,13.1752197 C4.77455976,14.6879097 2.93554868,15.2042171 1.50043255,14.3346468 C0.065316419,13.4650765 -0.424513637,11.5266594 0.400463299,10.0139694 C1.22544024,8.50127947 3.06445132,7.98497211 4.49956745,8.8545424 C5.93468358,9.7331707 6.42451364,11.6625298 5.5995367,13.1752197" id="Path"></path>
            <path d="M0.400463299,27.9319765 C-0.424513637,26.4192865 0.065316419,24.4899275 1.50043255,23.6112992 C2.93554868,22.7417289 4.76596625,23.2580362 5.5995367,24.7707262 C6.42451364,26.2834162 5.93468358,28.2127752 4.49956745,29.0914035 C3.05585781,29.9609738 1.22544024,29.4446665 0.400463299,27.9319765" id="Path"></path>
            <path d="M26.4004633,13.1752197 C25.5754864,11.6625298 26.0653164,9.7331707 27.5004325,8.8545424 C28.9355487,7.98497211 30.7659663,8.50127947 31.5995367,10.0139694 C32.4245136,11.5266594 31.9346836,13.4560185 30.4995675,14.3346468 C29.0644513,15.2042171 27.2254402,14.6879097 26.4004633,13.1752197" id="Path"></path>
            <path d="M16,37.9459459 C14.3409742,37.9459459 13,36.5324866 13,34.7837838 C13,33.0350809 14.3409742,31.6216216 16,31.6216216 C17.6590258,31.6216216 19,33.0350809 19,34.7837838 C19,36.523426 17.6590258,37.9459459 16,37.9459459" id="Path"></path>
            <path d="M16,6.32432432 C14.3409742,6.32432432 13,4.91086502 13,3.16216216 C13,1.4134593 14.3409742,0 16,0 C17.6590258,0 19,1.4134593 19,3.16216216 C19,4.91086502 17.6590258,6.32432432 16,6.32432432" id="Path"></path>
        </g>
    </g>
</svg>