<?xml version="1.0" encoding="UTF-8"?>
<svg width="48px" height="48px" viewBox="0 0 48 48" version="1.1" xmlns="http://www.w3.org/2000/svg" xmlns:xlink="http://www.w3.org/1999/xlink">
    <title>icon_logo_formium</title>
    <g id="icon_logo_formium" stroke="none" stroke-width="1" fill="none" fill-rule="evenodd">
        <path d="M33.8979396,31.3215027 L38.5673281,34.0066937 L20.3872566,44.461386 L15.71782,41.776195 L33.8979396,31.3215027 Z M10.0444586,27.2274367 L14.6859294,29.895287 L14.6839979,35.5613261 L10.042529,32.8934757 L10.0444586,27.2274367 Z M22.0587454,26.0211575 L22.0581674,31.3355679 L15.3191309,35.2093121 L15.3197571,29.8949017 L22.0587454,26.0211575 Z M34.2040974,25.5148603 L38.90099,28.2145018 L38.8991596,33.5299719 L34.2023152,30.8303304 L34.2040974,25.5148603 Z M33.5554147,19.3895363 L33.5547885,24.7038022 L22.6683636,30.9614927 L22.6689416,25.6471787 L33.5554147,19.3895363 Z M26.2320002,17.6199287 L26.231374,22.9341946 L15.3449491,29.1918851 L15.3455271,23.8775711 L26.2320002,17.6199287 Z M10.0465029,21.1755693 L14.6864111,23.8425045 L14.6846,29.1579264 L10.0446926,26.4910394 L10.0465029,21.1755693 Z M34.2166694,19.4248919 L38.8565788,22.0917789 L38.8547966,27.407249 L34.2148871,24.7403138 L34.2166694,19.4248919 Z M10.0018103,15.087046 L14.6986941,17.7867356 L14.6968877,23.1021575 L10,20.402516 L10.0018103,15.087046 Z M33.5801732,7.24898668 L33.5795952,12.5631707 L15.3065108,23.066513 L15.307137,17.7523434 L33.5801732,7.24898668 Z M33.5811848,13.3721094 L33.5806068,18.6864716 L26.8416184,22.5602158 L26.8421964,17.2458536 L33.5811848,13.3721094 Z M34.2169102,13.12332 L38.8584092,15.7911222 L38.8565306,21.3553817 L34.2150316,18.6875313 L34.2169102,13.12332 Z M28.7224467,4 L33.3918833,6.68520061 L15.0030504,17.2599187 L10.3336325,14.5746796 L28.7224467,4 Z" id="Combined-Shape" fill="#FFFFFF" fill-rule="nonzero"></path>
    </g>
</svg>