<?xml version="1.0" encoding="UTF-8"?>
<svg width="48px" height="48px" viewBox="0 0 48 48" version="1.1" xmlns="http://www.w3.org/2000/svg" xmlns:xlink="http://www.w3.org/1999/xlink">
    <title>icon_logo_react</title>
    <g id="icon_logo_react" stroke="none" stroke-width="1" fill="none" fill-rule="evenodd">
        <g id="Group-21-Copy" transform="translate(8.000000, 9.000000)" fill="#FFFFFF" fill-rule="nonzero">
            <path d="M27.1327435,10.0450333 L27.1327435,10.0450333 C26.7814991,9.91781589 26.4273852,9.80003884 26.0704017,9.69170212 C26.1295817,9.43786304 26.1842996,9.18292342 26.2345552,8.92688328 C27.0386791,4.80649371 26.512903,1.48713451 24.7174304,0.394443135 C22.9959783,-0.65358585 20.1805043,0.439150961 17.3369948,3.05107545 C17.0568009,3.30904405 16.7829152,3.57435289 16.5153378,3.84700198 C16.33621,3.66575758 16.1539448,3.4880571 15.9685422,3.31390053 C12.98847,0.520888135 10.0013817,-0.655963604 8.2077887,0.439953642 C6.48795783,1.49086016 5.97853826,4.61151792 6.70250087,8.51638002 C6.77452696,8.9030805 6.8558313,9.28765565 6.94641391,9.67010545 C6.52375565,9.79682306 6.11556,9.93187038 5.72502652,10.0755503 C2.23128783,11.3612486 0,13.3764327 0,15.4665236 C0,17.6253724 2.39515435,19.7907033 6.03433696,21.1034656 C6.32942391,21.2094195 6.6268687,21.3075687 6.9266713,21.3979133 C6.82930696,21.8098553 6.74289478,22.2243922 6.66743478,22.6415239 C5.97721826,26.4785518 6.51628043,29.5252115 8.23159174,30.5696511 C10.0032757,31.6479699 12.9767765,30.5395884 15.8722826,27.8679929 C16.10114,27.656802 16.3306765,27.4334748 16.5608922,27.1980116 C16.8506226,27.4930853 17.1479717,27.7794607 17.4529396,28.0571379 C20.2576096,30.6046207 23.0275148,31.6333399 24.741377,30.5861288 C26.5114539,29.5045386 27.0865865,26.2315835 26.3397248,22.2494671 C26.2827639,21.9453166 26.2168022,21.6349415 26.1418396,21.3183418 C26.3506865,21.2532893 26.5552483,21.1858691 26.7555248,21.1160813 C30.5386878,19.793187 33,17.6542084 33,15.4665387 C33,13.3688754 30.6968583,11.3401366 27.1327435,10.0450333 Z M18.262487,4.17370835 C20.6988339,1.93557582 22.9758339,1.05197531 24.0133396,1.68356422 L24.0133396,1.68356422 C25.118323,2.35631705 25.5481409,5.06906132 24.8538352,8.62661995 C24.8083239,8.85836763 24.7588622,9.08919652 24.70545,9.31910661 C23.2516649,8.97131842 21.7776599,8.72551377 20.2931061,8.58330545 C19.4425911,7.29355805 18.5106519,6.06581603 17.5036304,4.90843422 C17.7507765,4.65692746 18.0037287,4.41201884 18.262487,4.17370835 Z M9.74376652,17.2520045 C10.0422013,17.8604772 10.3540609,18.4612916 10.6793452,19.0544478 C11.0111817,19.6593463 11.3565339,20.2556374 11.7154017,20.8433212 C10.6939463,20.7263276 9.67885501,20.5540545 8.67413609,20.327182 C8.96548304,19.3340686 9.32446565,18.3018357 9.74376652,17.2520045 Z M9.74217391,13.7522692 C9.33163957,12.724489 8.98040478,11.713974 8.69356304,10.7381409 C9.63512478,10.5156922 10.6391283,10.3339379 11.6853143,10.1959525 C11.3351222,10.7724694 10.9979004,11.3574523 10.6736491,11.9509013 C10.3499143,12.5435828 10.0394226,13.1440388 9.74217391,13.7522692 Z M10.4915178,15.5022959 C10.9258983,14.5479938 11.3937809,13.6119363 11.89518,12.6941234 L11.89518,12.6944263 C12.3961009,11.7770779 12.9294622,10.880791 13.4952639,10.0055656 C14.4766552,9.92725118 15.4829543,9.88623871 16.5001578,9.88623871 C17.5218952,9.88623871 18.5294713,9.92755408 19.5106043,10.0064894 C20.0703035,10.8797157 20.6003026,11.7729685 21.1006017,12.6862481 C21.6033974,13.6013551 22.0776074,14.5329953 22.5232317,15.4811687 C22.0824378,16.4384998 21.6097822,17.3783586 21.1052648,18.3007453 L21.1051213,18.3007453 C20.6052335,19.2173769 20.0775204,20.1161274 19.5219822,20.9969968 C18.5428865,21.0708434 17.5310778,21.1089178 16.5,21.1089178 C15.4731548,21.1089178 14.4741874,21.0751597 13.5121943,21.0093399 C12.9425378,20.1309846 12.4049439,19.2308458 11.8994126,18.3089236 C11.3966265,17.3925242 10.9273283,16.4569816 10.4915178,15.5022959 L10.4915178,15.5022959 Z M22.3263796,19.0441189 C22.6582926,18.4364842 22.9772926,17.8212821 23.2833796,17.1985126 L23.2833796,17.1985126 C23.7027781,18.1989854 24.0726753,19.2217718 24.391577,20.2627404 C23.3752933,20.5038125 22.3477757,20.6886961 21.3132222,20.8166358 C21.6620465,20.2329503 21.9997609,19.6421113 22.3263652,19.0441189 L22.3263796,19.0441189 Z M23.269993,13.7533445 C22.9650252,13.1424991 22.6485935,12.5382973 22.3206978,11.940739 L22.3206978,11.940739 C21.9980917,11.3525302 21.6635961,10.7718636 21.3172109,10.1987391 C22.3701978,10.3390266 23.3789935,10.5255515 24.3261939,10.7538613 C24.0221208,11.7717974 23.6696012,12.7728968 23.2699787,13.7533445 L23.269993,13.7533445 Z M16.5157826,5.97259256 C17.202173,6.76240604 17.8503251,7.58831698 18.4577609,8.4471677 C17.158393,8.38235751 15.8582887,8.38204956 14.5574478,8.44624386 C15.1986522,7.55381386 15.8553522,6.72473509 16.5157826,5.97259256 Z M8.91407478,1.72780256 C10.018183,1.05320205 12.4593509,2.01514727 15.0323896,4.42662864 C15.19683,4.58078886 15.3620165,4.74218835 15.52749,4.90914603 C14.5146371,6.06630279 13.5755468,7.29303906 12.7163922,8.58129118 C11.2352993,8.72151171 9.76436265,8.96282093 8.31281478,9.30370422 C8.22864087,8.94802055 8.15303739,8.59026707 8.08600435,8.23044379 L8.08600435,8.23059524 C7.46573348,4.88483842 7.87758783,2.36114828 8.91407478,1.72780256 Z M7.30493739,19.9645973 C7.03137217,19.8819363 6.75982522,19.7922127 6.49029652,19.6954265 C5.09279205,19.2312973 3.78811817,18.4997086 2.64143478,17.5371986 C1.97740251,17.0563075 1.5315357,16.3067658 1.40968826,15.4665236 C1.40968826,14.198257 3.20122957,12.5803396 6.18919304,11.4807118 C6.56422609,11.3432969 6.94282696,11.2175536 7.32499565,11.103482 C7.76865922,12.6057292 8.3059622,14.0753591 8.93338696,15.5027502 C8.29808463,16.9505598 7.75408373,18.4410873 7.30493739,19.9645973 L7.30493739,19.9645973 Z M14.9446096,26.7475106 C13.865561,27.7935592 12.6133395,28.621049 11.2505178,29.1886306 L11.2503743,29.1886306 C10.5240904,29.5555484 9.68632711,29.5888087 8.93598391,29.2805149 C7.89496304,28.6469117 7.46237609,26.2004001 8.05254522,22.9191152 C8.12272522,22.5313344 8.20307304,22.1458304 8.2935887,21.7626031 C9.7596914,22.0950262 11.2454734,22.3220603 12.7406974,22.4421409 C13.6072712,23.7377204 14.5535441,24.9718068 15.573403,26.1364279 C15.3685257,26.3455087 15.1589278,26.5492029 14.9446096,26.7475106 Z M16.5547657,25.065621 C15.8866017,24.3045429 15.2202026,23.4628181 14.5692704,22.5574392 C15.2010626,22.5836904 15.8446391,22.5968463 16.5,22.5969069 C17.1726835,22.5969069 17.8367057,22.5813379 18.4920665,22.5501999 C17.8874377,23.4230508 17.2408224,24.2626157 16.5547657,25.0655907 L16.5547657,25.065621 Z M25.1154104,27.1359326 C25.0538623,27.9833578 24.6627814,28.7661024 24.0350191,29.2983253 C22.995017,29.9337762 20.7708887,29.107787 18.3725204,26.9291891 C18.0975204,26.6794493 17.8209087,26.4132671 17.5426852,26.1306426 C18.5427643,24.961975 19.4669074,23.723329 20.3088026,22.4231643 C21.8126526,22.289239 23.3059936,22.046276 24.7782509,21.6959957 C24.845437,21.9827397 24.9049757,22.2636175 24.956867,22.5386292 L24.956867,22.5386292 C25.2765312,24.0478206 25.3302746,25.6062326 25.1154104,27.1359628 L25.1154104,27.1359326 Z M26.312263,19.703726 L26.3121196,19.703726 C26.131753,19.7667743 25.9465657,19.827672 25.7578774,19.886707 C25.2964191,18.3774241 24.7381062,16.903071 24.0868148,15.473884 C24.7134685,14.0638129 25.2500229,12.6110562 25.6928817,11.1253513 C26.0304,11.2286397 26.3581187,11.3373802 26.6738713,11.4521636 C29.7276913,12.5616507 31.5903691,14.2023765 31.5903691,15.4664933 C31.5903691,16.8131197 29.5785887,18.5612835 26.312263,19.7037563 L26.312263,19.703726 Z" id="Shape"></path>
            <path d="M16.5,12.3560432 C17.6918996,12.3560432 18.7664519,13.113864 19.2225856,14.276206 C19.6787192,15.4385481 19.4266044,16.776472 18.5838041,17.6660946 C17.7410038,18.5557171 16.4734969,18.8218383 15.3723308,18.3403639 C14.2711646,17.8588895 13.5532291,16.7246398 13.5532291,15.4665236 C13.5532291,14.6415729 13.8636916,13.85041 14.4163183,13.2670818 C14.9689451,12.6837536 15.7184678,12.3560432 16.5,12.3560432" id="Path"></path>
        </g>
    </g>
</svg>