<?xml version="1.0" encoding="UTF-8"?>
<svg width="24px" height="24px" viewBox="0 0 24 24" version="1.1" xmlns="http://www.w3.org/2000/svg" xmlns:xlink="http://www.w3.org/1999/xlink">
    <title>icon_clock</title>
    <g id="icon_clock" stroke="none" stroke-width="1" fill="none" fill-rule="evenodd">
        <path d="M12.3203125,20.640625 C14.6119792,20.640625 16.5716146,19.8268229 18.1992188,18.1992188 C19.8268229,16.5716146 20.640625,14.6119792 20.640625,12.3203125 C20.640625,10.0286458 19.8268229,8.06901042 18.1992188,6.44140625 C16.5716146,4.81380208 14.6119792,4 12.3203125,4 C10.0286458,4 8.0625,4.8203125 6.421875,6.4609375 C4.80729167,8.07552083 4,10.0286458 4,12.3203125 C4,14.6119792 4.81380208,16.5716146 6.44140625,18.1992188 C8.06901042,19.8268229 10.0286458,20.640625 12.3203125,20.640625 Z M12.3203125,18.9609375 C10.4713542,18.9609375 8.89583333,18.3098958 7.59375,17.0078125 C6.31770833,15.7057292 5.6796875,14.1432292 5.6796875,12.3203125 C5.6796875,10.4973958 6.32421875,8.93489583 7.61328125,7.6328125 C8.90234375,6.33072917 10.4713542,5.6796875 12.3203125,5.6796875 C14.1692708,5.6796875 15.7382812,6.33072917 17.0273438,7.6328125 C18.3164062,8.93489583 18.9609375,10.4973958 18.9609375,12.3203125 C18.9609375,14.1432292 18.3164062,15.7057292 17.0273438,17.0078125 C15.7382812,18.3098958 14.1692708,18.9609375 12.3203125,18.9609375 Z M15.875,15.7578125 L16.5,14.7421875 L12.75,12.515625 L12.75,8.1796875 L11.5,8.1796875 L11.5,13.140625 L15.875,15.7578125 Z" id="icon" fill="#62C7B0" fill-rule="nonzero"></path>
    </g>
</svg>