<?xml version="1.0" encoding="UTF-8"?>
<svg width="72px" height="72px" viewBox="0 0 72 72" version="1.1" xmlns="http://www.w3.org/2000/svg" xmlns:xlink="http://www.w3.org/1999/xlink">
    <title>icon_app_features</title>
    <g id="icon_app_features" stroke="none" stroke-width="1" fill="none" fill-rule="evenodd">
        <path d="M43.9032258,30.6774194 C45.5600801,30.6774194 46.9032258,32.0205651 46.9032258,33.6774194 L46.9032258,48 C46.9032258,49.6568542 45.5600801,51 43.9032258,51 L17,51 C15.3431458,51 14,49.6568542 14,48 L14,33.6774194 C14,32.0205651 15.3431458,30.6774194 17,30.6774194 L43.9032258,30.6774194 Z M43.9032258,32.6774194 L17,32.6774194 C16.4871642,32.6774194 16.0644928,33.0634595 16.0067277,33.5607982 L16,33.6774194 L16,48 C16,48.5128358 16.3860402,48.9355072 16.8833789,48.9932723 L17,49 L43.9032258,49 C44.4160616,49 44.838733,48.6139598 44.8964981,48.1166211 L44.9032258,48 L44.9032258,33.6774194 C44.9032258,33.1645835 44.5171856,32.7419122 44.0198469,32.6841471 L43.9032258,32.6774194 Z" id="Rectangle" fill="#66C2CC" fill-rule="nonzero"></path>
        <rect id="Rectangle-Copy-10" fill="#A1FFB6" opacity="0.400000006" x="21.6774194" y="22" width="36.7741935" height="23.2258065" rx="3"></rect>
    </g>
</svg>