<?xml version="1.0" encoding="UTF-8"?>
<svg width="72px" height="72px" viewBox="0 0 72 72" version="1.1" xmlns="http://www.w3.org/2000/svg" xmlns:xlink="http://www.w3.org/1999/xlink">
    <title>icon_seo</title>
    <g id="icon_seo" stroke="none" stroke-width="1" fill="none" fill-rule="evenodd">
        <path d="M60.7142857,27.1863782 L60.7142857,46 C60.7142857,47.1045695 59.8188552,48 58.7142857,48 L19.7432121,48 C18.6386426,48 17.7432121,47.1045695 17.7432121,46 C17.7432121,45.2324401 18.1824866,44.5325927 18.8737139,44.1988967 L57.8447876,25.385275 C58.8395095,24.9050644 60.0351784,25.3221582 60.515389,26.3168801 C60.6462962,26.588045 60.7142857,26.8852685 60.7142857,27.1863782 Z" id="Rectangle" fill="#A1FFB6" opacity="0.400000006"></path>
        <path d="M47,31.618034 L47,47 C47,47.5522847 46.5522847,48 46,48 L15.236068,48 C14.6837832,48 14.236068,47.5522847 14.236068,47 C14.236068,46.6212279 14.4500704,46.2749648 14.7888544,46.1055728 L45.5527864,30.7236068 C46.0467649,30.4766175 46.6474379,30.6768419 46.8944272,31.1708204 C46.9638549,31.3096758 47,31.4627889 47,31.618034 Z" id="Rectangle-Copy-18" fill="#66C2CC"></path>
    </g>
</svg>