<?xml version="1.0" encoding="UTF-8"?>
<svg width="72px" height="72px" viewBox="0 0 72 72" version="1.1" xmlns="http://www.w3.org/2000/svg" xmlns:xlink="http://www.w3.org/1999/xlink">
    <title>icon_optimized_performance</title>
    <g id="icon_optimized_performance" stroke="none" stroke-width="1" fill="none" fill-rule="evenodd">
        <path d="M10.625,24.5 C4.48083216,24.5 -0.5,29.4808322 -0.5,35.625 C-0.5,41.7691678 4.48083216,46.75 10.625,46.75 C16.7691678,46.75 21.75,41.7691678 21.75,35.625 C21.75,29.4808322 16.7691678,24.5 10.625,24.5 Z M10.625,27.5 C15.1123136,27.5 18.75,31.1376864 18.75,35.625 C18.75,40.1123136 15.1123136,43.75 10.625,43.75 C6.13768641,43.75 2.5,40.1123136 2.5,35.625 C2.5,31.1376864 6.13768641,27.5 10.625,27.5 Z" id="Oval" fill="#A1FFB6" fill-rule="nonzero" opacity="0.400000006"></path>
        <path d="M61.375,24.5 C55.2308322,24.5 50.25,29.4808322 50.25,35.625 C50.25,41.7691678 55.2308322,46.75 61.375,46.75 C67.5191678,46.75 72.5,41.7691678 72.5,35.625 C72.5,29.4808322 67.5191678,24.5 61.375,24.5 Z M61.375,27.5 C65.8623136,27.5 69.5,31.1376864 69.5,35.625 C69.5,40.1123136 65.8623136,43.75 61.375,43.75 C56.8876864,43.75 53.25,40.1123136 53.25,35.625 C53.25,31.1376864 56.8876864,27.5 61.375,27.5 Z" id="Oval-Copy-2" fill="#A1FFB6" fill-rule="nonzero" opacity="0.400000006"></path>
        <path d="M35.125,24.5 C28.9808322,24.5 24,29.4808322 24,35.625 C24,41.7691678 28.9808322,46.75 35.125,46.75 C41.2691678,46.75 46.25,41.7691678 46.25,35.625 C46.25,29.4808322 41.2691678,24.5 35.125,24.5 Z M35.125,27.5 C39.6123136,27.5 43.25,31.1376864 43.25,35.625 C43.25,40.1123136 39.6123136,43.75 35.125,43.75 C30.6376864,43.75 27,40.1123136 27,35.625 C27,31.1376864 30.6376864,27.5 35.125,27.5 Z" id="Oval-Copy-3" fill="#A1FFB6" fill-rule="nonzero" opacity="0.400000006"></path>
        <path d="M35.125,24.5 C35.9534271,24.5 36.625,25.1715729 36.625,26 C36.625,26.8284271 35.9534271,27.5 35.125,27.5 C30.6376864,27.5 27,31.1376864 27,35.625 C27,40.1123136 30.6376864,43.75 35.125,43.75 C39.6123136,43.75 43.25,40.1123136 43.25,35.625 C43.25,34.7965729 43.9215729,34.125 44.75,34.125 C45.5784271,34.125 46.25,34.7965729 46.25,35.625 C46.25,41.7691678 41.2691678,46.75 35.125,46.75 C28.9808322,46.75 24,41.7691678 24,35.625 C24,29.4808322 28.9808322,24.5 35.125,24.5 Z" id="Path-Copy" fill="#66C2CC" fill-rule="nonzero"></path>
        <path d="M61.375,24.5 C62.2034271,24.5 62.875,25.1715729 62.875,26 C62.875,26.8284271 62.2034271,27.5 61.375,27.5 C56.8876864,27.5 53.25,31.1376864 53.25,35.625 C53.25,40.1123136 56.8876864,43.75 61.375,43.75 C65.8623136,43.75 69.5,40.1123136 69.5,35.625 C69.5,34.7965729 70.1715729,34.125 71,34.125 C71.8284271,34.125 72.5,34.7965729 72.5,35.625 C72.5,41.7691678 67.5191678,46.75 61.375,46.75 C55.2308322,46.75 50.25,41.7691678 50.25,35.625 C50.25,29.4808322 55.2308322,24.5 61.375,24.5 Z" id="Path-Copy-5" fill="#66C2CC" fill-rule="nonzero"></path>
    </g>
</svg>