<svg height="663" viewBox="0 0 497 663" width="497" xmlns="http://www.w3.org/2000/svg" xmlns:xlink="http://www.w3.org/1999/xlink"><defs><path id="a" d="m18.3175439 0h381.0308861c10.1165 0 18.317544 8.18620944 18.317544 18.2896134v546.1963776c0 10.101075-8.201274 18.289614-18.317544 18.289614h-381.0308861c-10.11650014 0-18.3175439-8.18621-18.3175439-18.289614v-546.1963776c0-10.10107455 8.20127407-18.2896134 18.3175439-18.2896134z"/><filter id="b" height="122.3%" width="131.1%" x="-15.6%" y="-9.4%"><feOffset dx="0" dy="10" in="SourceAlpha" result="shadowOffsetOuter1"/><feGaussianBlur in="shadowOffsetOuter1" result="shadowBlurOuter1" stdDeviation="20"/><feColorMatrix in="shadowBlurOuter1" type="matrix" values="0 0 0 0 0   0 0 0 0 0   0 0 0 0 0  0 0 0 0.0800498188 0"/></filter></defs><g fill="none" fill-rule="evenodd" transform="translate(40 30)"><g><use fill="#000" filter="url(#b)" xlink:href="#a"/><use fill="#fff" fill-rule="evenodd" xlink:href="#a"/></g><g fill="#fff" stroke="#e9e9e9"><path d="m208.747351 575.160415c-5.665592 0-10.258462-4.584682-10.258462-10.240174s4.59287-10.240174 10.258462-10.240174c5.665593 0 10.258463 4.584682 10.258463 10.240174s-4.59287 10.240174-10.258463 10.240174z"/><ellipse cx="208.621413" cy="21.836399" rx="3.776968" ry="3.770235"/></g></g></svg>