<svg height="172" viewBox="0 0 1001 172" width="1001" xmlns="http://www.w3.org/2000/svg"><path d="m257 0h124v32h-124zm0 70h124v32h-124zm0 69h124v32h-124zm640.957-68.5h70.086v-70.5h32.957v171h-32.957v-70.5h-70.086v70.5h-32.957v-171h32.957zm-316.8 100.5-53.157-101-53.158 101h-36.842l90-171 90 171h-36.842zm-449.197-171c28.143 0 51.04 22.878 51.04 51 0 25.671-19.083 46.962-43.817 50.48l37.118 70.52h-34.708l-53.16-101h43.527c11.036 0 20.015-8.972 20.015-20s-8.979-20-20.015-20h-115.643l-16.317-31zm652.284 52.203c-9.184-13.441-24.134-21.148-41.744-21.203-29.477.093-51.5 21.621-51.5 55.597 0 31.567 21.071 54.31 51.5 54.403 18.541-.038 33.609-8.493 42.551-22.245l23.949 20.683c-14.375 17.9-36.998 31.562-66.691 31.562-45.719 0-85.309-29.678-85.309-84.793 0-47.814 30.636-86.207 85.309-86.207 23.094 0 48.31 9.657 66.691 32.033l-24.273 20.727c-.16-.186-.32-.372-.483-.557z" fill="#fff" fill-rule="evenodd"/></svg>