<?xml version="1.0" encoding="UTF-8"?>
<svg version="1.1" viewBox="0 0 1458 984" xmlns="http://www.w3.org/2000/svg">
<title>Group 39</title>
<g fill="none" fill-rule="evenodd">
<g transform="translate(-265 -7325)" stroke="#BEF7B2">
<g transform="translate(265 7325)">
<rect x="2" y="2" width="1454" height="980" rx="43" stroke-width="4"/>
<g transform="translate(183 109)" stroke-width="1.8">
<rect id="key" x=".9" y="52.9" width="66.2" height="63.2" rx="6"/>
<rect id="key" x="75.9" y="52.9" width="66.2" height="63.2" rx="6"/>
<rect id="key" x="119.9" y="125.9" width="66.2" height="63.2" rx="6"/>
<rect id="key" x="194.9" y="125.9" width="66.2" height="63.2" rx="6"/>
<rect id="key" x="269.9" y="125.9" width="66.2" height="63.2" rx="6"/>
<rect id="key" x="345.9" y="125.9" width="66.2" height="63.2" rx="6"/>
<rect id="key" x="420.9" y="125.9" width="66.2" height="63.2" rx="6"/>
<rect id="key" x="495.9" y="125.9" width="66.2" height="63.2" rx="6"/>
<rect id="key" x="571.9" y="125.9" width="66.2" height="63.2" rx="6"/>
<rect id="key" x="646.9" y="125.9" width="66.2" height="63.2" rx="6"/>
<rect id="key" x="723.9" y="125.9" width="66.2" height="63.2" rx="6"/>
<rect id="key" x="799.9" y="125.9" width="66.2" height="63.2" rx="6"/>
<rect id="key" x="874.9" y="125.9" width="66.2" height="63.2" rx="6"/>
<rect id="key" x="950.9" y="125.9" width="66.2" height="63.2" rx="6"/>
<path id="key" d="m1030 125.9h55.991c1.4087 0 2.6837 0.57563 3.6069 1.5047 0.92566 0.93158 1.4978 2.2184 1.4978 3.6384v125.91c0 1.4213-0.57167 2.7084-1.4964 3.64-0.92257 0.92943-2.1968 1.505-3.6039 1.505h-38.999c-1.4079 0-2.6822-0.57502-3.6046-1.5043-0.92454-0.93143-1.4957-2.2185-1.4957-3.6407v-68.388h-11.895c-1.4087 0-2.6837-0.57563-3.6069-1.5047-0.92566-0.93158-1.4978-2.2184-1.4978-3.6384v-52.381c0-1.4211 0.57156-2.708 1.4969-3.6392 0.92304-0.92896 2.1982-1.5039 3.6078-1.5039z"/>
<rect id="key" x="134.9" y="198.9" width="66.2" height="63.2" rx="6"/>
<rect id="key" x="210.9" y="198.9" width="66.2" height="63.2" rx="6"/>
<rect id="key" x="285.9" y="198.9" width="66.2" height="63.2" rx="6"/>
<rect id="key" x="360.9" y="198.9" width="66.2" height="63.2" rx="6"/>
<rect id="key" x="436.9" y="198.9" width="66.2" height="63.2" rx="6"/>
<rect id="key" x="588.9" y="198.9" width="66.2" height="63.2" rx="6"/>
<rect id="key" x="664.9" y="198.9" width="66.2" height="63.2" rx="6"/>
<rect id="key" x="739.9" y="198.9" width="66.2" height="63.2" rx="6"/>
<rect id="key" x="814.9" y="198.9" width="66.2" height="63.2" rx="6"/>
<rect id="key" x="890.9" y="198.9" width="66.2" height="63.2" rx="6"/>
<rect id="key" x="965.9" y="198.9" width="66.2" height="63.2" rx="6"/>
<rect id="key" x="151.9" y="52.9" width="66.2" height="63.2" rx="6"/>
<rect id="key" x="226.9" y="52.9" width="66.2" height="63.2" rx="6"/>
<rect id="key" x="302.9" y="52.9" width="66.2" height="63.2" rx="6"/>
<rect id="key" x="379.9" y="52.9" width="66.2" height="63.2" rx="6"/>
<rect id="key" x="454.9" y="52.9" width="66.2" height="63.2" rx="6"/>
<rect id="key" x="530.9" y="52.9" width="66.2" height="63.2" rx="6"/>
<rect id="key" x="605.9" y="52.9" width="66.2" height="63.2" rx="6"/>
<rect id="key" x="680.9" y="52.9" width="66.2" height="63.2" rx="6"/>
<rect id="key" x="756.9" y="52.9" width="66.2" height="63.2" rx="6"/>
<rect id="key" x="831.9" y="52.9" width="66.2" height="63.2" rx="6"/>
<rect id="key" x="906.9" y="52.9" width="66.2" height="63.2" rx="6"/>
<rect id="key" x="982.9" y="52.9" width="108.2" height="63.2" rx="6"/>
<rect id="key" x=".9" y="125.9" width="108.2" height="63.2" rx="6"/>
<rect id="key" x=".9" y="346.9" width="66.2" height="70.2" rx="6"/>
<rect id="key" x="75.9" y="346.9" width="66.2" height="70.2" rx="6"/>
<rect id="key" x="151.9" y="346.9" width="66.2" height="70.2" rx="6"/>
<rect id="key" x="800.9" y="346.9" width="66.2" height="70.2" rx="6"/>
<rect id="key" x="876.9" y="381.9" width="65.2" height="35.2" rx="3"/>
<rect id="key" x="1025.9" y="381.9" width="65.2" height="35.2" rx="3"/>
<rect id="key" x="951.9" y="381.9" width="65.2" height="35.2" rx="3"/>
<rect id="key" x="951.9" y="346.9" width="65.2" height="35.2" rx="3"/>
<rect id="key" x="702.9" y="346.9" width="89.2" height="70.2" rx="7"/>
<rect id="key" x=".9" y="198.9" width="125.2" height="63.2" rx="6"/>
<rect id="key" x=".9" y=".9" width="68.2" height="40.2" rx="4"/>
<rect id="key" x="78.9" y=".9" width="68.2" height="40.2" rx="4"/>
<rect id="key" x="157.9" y=".9" width="68.2" height="40.2" rx="4"/>
<rect id="key" x="236.9" y=".9" width="68.2" height="40.2" rx="4"/>
<rect id="key" x="315.9" y=".9" width="68.2" height="40.2" rx="4"/>
<rect id="key" x="393.9" y=".9" width="68.2" height="40.2" rx="4"/>
<rect id="key" x="472.9" y=".9" width="68.2" height="40.2" rx="4"/>
<rect id="key" x="550.9" y=".9" width="68.2" height="40.2" rx="4"/>
<rect id="key" x="629.9" y=".9" width="68.2" height="40.2" rx="4"/>
<rect id="key" x="707.9" y=".9" width="68.2" height="40.2" rx="4"/>
<rect id="key" x="786.9" y=".9" width="68.2" height="40.2" rx="4"/>
<rect id="key" x="865.9" y=".9" width="68.2" height="40.2" rx="4"/>
<rect id="key" x="944.9" y=".9" width="68.2" height="40.2" rx="4"/>
<rect id="key" x="1022.9" y=".9" width="68.2" height="40.2" rx="4"/>
<rect id="key" x="929.9" y="271.9" width="161.2" height="63.2" rx="6"/>
<rect id="key" x="250.9" y="271.9" width="66.2" height="63.2" rx="6"/>
<rect id="key" x="325.9" y="271.9" width="66.2" height="63.2" rx="6"/>
<rect id="key" x="324.9" y="346.9" width="369.2" height="70.2" rx="7"/>
<rect id="key" x="401.9" y="271.9" width="66.2" height="63.2" rx="6"/>
<rect id="key" x="476.9" y="271.9" width="66.2" height="63.2" rx="6"/>
<rect id="key" x="551.9" y="271.9" width="66.2" height="63.2" rx="6"/>
<rect id="key" x="627.9" y="271.9" width="66.2" height="63.2" rx="6"/>
<rect id="key" x="702.9" y="271.9" width="66.2" height="63.2" rx="6"/>
<rect id="key" x="173.9" y="271.9" width="66.2" height="63.2" rx="6"/>
<rect id="key" x="98.9" y="271.9" width="66.2" height="63.2" rx="6"/>
<rect id="key" x="777.9" y="271.9" width="66.2" height="63.2" rx="6"/>
<rect id="key" x="853.9" y="271.9" width="66.2" height="63.2" rx="6"/>
<rect id="key" x="512.9" y="198.9" width="66.2" height="63.2" rx="6"/>
<rect id="a" x=".9" y="271.9" width="89.2" height="63.2" rx="6"/>
<rect x="227.9" y="346.9" width="89.2" height="70.2" rx="7"/>
</g>
</g>
</g>
</g>
</svg>
