<?xml version="1.0" encoding="UTF-8" standalone="no"?>
<!-- Created with Keyshape -->
<svg xmlns="http://www.w3.org/2000/svg" width="436px" height="1041px" viewBox="0 0 436 1041">
    <style>
@keyframes text-1_o { 0% { opacity: 0.1; } 35.2941% { opacity: 0.1; } 41.1765% { opacity: 1; } 100% { opacity: 1; } }
@keyframes text-2_o { 0% { opacity: 0.1; } 35.2941% { opacity: 0.1; } 41.1765% { opacity: 1; } 100% { opacity: 1; } }
@keyframes text-3_o { 0% { opacity: 0.1; } 35.2941% { opacity: 0.1; } 41.1765% { opacity: 1; } 100% { opacity: 1; } }
@keyframes text-4_o { 0% { opacity: 0.1; } 35.2941% { opacity: 0.1; } 41.1765% { opacity: 1; } 100% { opacity: 1; } }
@keyframes text-5_o { 0% { opacity: 0.1; } 35.2941% { opacity: 0.1; } 41.1765% { opacity: 1; } 100% { opacity: 1; } }
@keyframes text-6_o { 0% { opacity: 0.1; } 35.2941% { opacity: 0.1; } 41.1765% { opacity: 1; } 100% { opacity: 1; } }
@keyframes text-7_o { 0% { opacity: 0.1; } 35.2941% { opacity: 0.1; } 41.1765% { opacity: 1; } 100% { opacity: 1; } }
@keyframes box-6_o { 0% { opacity: 0.1; } 35.2941% { opacity: 0.1; } 41.1765% { opacity: 1; } 100% { opacity: 1; } }
@keyframes box-5_o { 0% { opacity: 0.1; } 35.2941% { opacity: 0.1; } 41.1765% { opacity: 1; } 100% { opacity: 1; } }
@keyframes box-4_o { 0% { opacity: 0.1; } 35.2941% { opacity: 0.1; } 41.1765% { opacity: 1; } 100% { opacity: 1; } }
@keyframes box-3_o { 0% { opacity: 0.1; } 35.2941% { opacity: 0.1; } 41.1765% { opacity: 1; } 100% { opacity: 1; } }
@keyframes box-2_o { 0% { opacity: 0.1; } 35.2941% { opacity: 0.1; } 41.1765% { opacity: 1; } 100% { opacity: 1; } }
@keyframes box-1_o { 0% { opacity: 0.1; } 29.4118% { opacity: 0.1; } 35.2941% { opacity: 1; } 100% { opacity: 1; } }
@keyframes text-1-2_t { 0% { transform: translate(0px,4px); } 60.7941% { transform: translate(0px,4px); } 60.8% { transform: translate(0px,0px); } 100% { transform: translate(0px,0px); } }
@keyframes text-1-2_o { 0% { opacity: 0; } 49.0294% { opacity: 0; } 50% { opacity: 1; } 100% { opacity: 1; } }
@keyframes text-2-2_t { 0% { transform: translate(0px,4px); } 60.7941% { transform: translate(0px,4px); } 60.8% { transform: translate(0px,0px); } 100% { transform: translate(0px,0px); } }
@keyframes text-2-2_o { 0% { opacity: 0; } 49.0294% { opacity: 0; } 50% { opacity: 1; } 100% { opacity: 1; } }
@keyframes text-3-2_t { 0% { transform: translate(0px,4px); } 60.7941% { transform: translate(0px,4px); } 60.8% { transform: translate(0px,0px); } 100% { transform: translate(0px,0px); } }
@keyframes text-3-2_o { 0% { opacity: 0; } 49.0294% { opacity: 0; } 50% { opacity: 1; } 100% { opacity: 1; } }
@keyframes text-4-2_t { 0% { transform: translate(0px,4px); } 60.7941% { transform: translate(0px,4px); } 60.8% { transform: translate(0px,0px); } 100% { transform: translate(0px,0px); } }
@keyframes text-4-2_o { 0% { opacity: 0; } 49.0294% { opacity: 0; } 50% { opacity: 1; } 100% { opacity: 1; } }
@keyframes text-5-2_t { 0% { transform: translate(0px,2.649994px); } 60.7941% { transform: translate(0px,2.649994px); } 60.8% { transform: translate(0px,-1.350006px); } 100% { transform: translate(0px,-1.350006px); } }
@keyframes text-5-2_o { 0% { opacity: 0; } 49.0294% { opacity: 0; } 50% { opacity: 1; } 100% { opacity: 1; } }
@keyframes text-6-2_t { 0% { transform: translate(0px,4px); } 60.7941% { transform: translate(0px,4px); } 60.8% { transform: translate(0px,0px); } 100% { transform: translate(0px,0px); } }
@keyframes text-6-2_o { 0% { opacity: 0; } 49.0294% { opacity: 0; } 50% { opacity: 1; } 100% { opacity: 1; } }
@keyframes text-7-2_t { 0% { transform: translate(0px,4px); } 60.7941% { transform: translate(0px,4px); } 60.8% { transform: translate(0px,0px); } 100% { transform: translate(0px,0px); } }
@keyframes text-7-2_o { 0% { opacity: 0; } 49.0294% { opacity: 0; } 50% { opacity: 1; } 100% { opacity: 1; } }
@keyframes box-6-2_o { 0% { opacity: 0; } 63.7353% { opacity: 0; } 64.7059% { opacity: 1; } 69.6176% { opacity: 1; } 100% { opacity: 1; } }
@keyframes box-6-2_d { 0% { d: path('M182,716.948L4,716.948C1.79086,716.948,0,718.438,0,720.276L0,779.348C4,785.172,13.6667,789.04,29,790.953L86.798,790.974L182,790.953L182,716.948Z'); } 64.7059% { d: path('M182,716.948L4,716.948C1.79086,716.948,0,718.438,0,720.276L0,779.348C4,785.172,13.6667,789.04,29,790.953L86.798,790.974L182,790.953L182,716.948Z'); } 94.1176% { d: path('M182,716.948L4,716.948C1.79086,716.948,0,718.438,0,720.276L0,779.348C4,785.172,13.6667,789.04,29,790.953L86.798,790.974L182,790.953L182,716.948Z'); } 94.2% { d: path('M182,702L4,702C1.79086,702,0,703.791,0,706L0,777C4,784,13.6667,788.649,29,790.949L86.798,790.974L182,790.949L182,702Z'); } 100% { d: path('M182,702L4,702C1.79086,702,0,703.791,0,706L0,777C4,784,13.6667,788.649,29,790.949L86.798,790.974L182,790.949L182,702Z'); } }
@keyframes box-5-2_o { 0% { opacity: 0; } 96.0882% { opacity: 0; } 97.0588% { opacity: 1; } 100% { opacity: 1; } }
@keyframes box-4-2_o { 0% { opacity: 0; } 90.2059% { opacity: 0; } 91.1765% { opacity: 1; } 100% { opacity: 1; } }
@keyframes box-3-2_o { 0% { opacity: 0; } 78.4412% { opacity: 0; } 79.4118% { opacity: 1; } 100% { opacity: 1; } }
@keyframes box-2-2_o { 0% { opacity: 0; } 69.6176% { opacity: 0; } 70.5882% { opacity: 1; } 100% { opacity: 1; } }
@keyframes box-1-2_t { 0% { transform: translate(91px,120.5px) scale(1,1.1) translate(-91px,-109.5px); } 51.9705% { transform: translate(91px,120.5px) scale(1,1.1) translate(-91px,-109.5px); } 51.99% { transform: translate(91px,109.5px) scale(1,1) translate(-91px,-109.5px); } 100% { transform: translate(91px,109.5px) scale(1,1) translate(-91px,-109.5px); } }
@keyframes box-1-2_o { 0% { opacity: 0; } 49.0294% { opacity: 0; } 50% { opacity: 1; } 100% { opacity: 1; } }
    </style>
    <title>phone</title>
    <g id="phone" stroke="none" stroke-width="1" fill="none" fill-rule="evenodd" transform="translate(218,520.5) translate(-218,-520.5)">
        <path d="M400.259,82.5482C410.689,88.1261,418.874,96.3113,424.452,106.741C430.03,117.171,433,127.516,433,156.044L433,299.5C433,298.672,433.672,298,434.5,298C435.328,298,436,298.672,436,299.5L436,403.5C436,404.328,435.328,405,434.5,405C433.672,405,433,404.328,433,403.5L433,874.956C433,903.484,430.03,913.829,424.452,924.259C418.874,934.689,410.689,942.874,400.259,948.452C389.829,954.03,379.484,957,350.956,957L85.0443,957C56.5157,957,46.1706,954.03,35.7409,948.452C25.3113,942.874,17.1261,934.689,11.5482,924.259C11.4378,924.053,11.3284,923.846,11.22,923.639L10.8979,923.019L10.8979,923.019L10.582,922.398C5.68068,912.641,3.05614,902.018,3.00089,875.806L3,426.5C3,427.328,2.32843,428,1.5,428C0.671573,428,0,427.328,0,426.5L0,426.5L0,361.5C0,360.672,0.671573,360,1.5,360C2.32843,360,3,360.672,3,361.5L3,361.5L3,342.5C3,343.328,2.32843,344,1.5,344C0.671573,344,0,343.328,0,342.5L0,342.5L0,277.5C0,276.672,0.671573,276,1.5,276C2.32843,276,3,276.672,3,277.5L3,277.5L3,244.5C3,245.328,2.32843,246,1.5,246C0.671573,246,0,245.328,0,244.5L0,244.5L0,213.5C0,212.672,0.671573,212,1.5,212C2.32843,212,3,212.672,3,213.5L3,213.5L3,156.044C3,127.516,5.97042,117.171,11.5482,106.741C17.1261,96.3113,25.3113,88.1261,35.7409,82.5482C35.9474,82.4378,36.1539,82.3284,36.3605,82.22L36.9807,81.8979L36.9807,81.8979L37.6024,81.582C47.3589,76.6807,57.9819,74.0561,84.1939,74L350.956,74C379.484,74,389.829,76.9704,400.259,82.5482ZM353.365,78L82.6346,78C59.4066,78,49.2544,80.136,40.5757,84.1775L40.0117,84.4438C39.6369,84.6231,39.2644,84.806,38.8933,84.9925L38.3375,85.2749L38.3375,85.2749L37.76,85.5748C37.5676,85.6757,37.3753,85.7776,37.1831,85.8804C27.5682,91.0225,20.0225,98.5682,14.8804,108.183C14.7776,108.375,14.6757,108.568,14.5748,108.76L14.2749,109.338L13.9925,109.893C13.806,110.264,13.6231,110.637,13.4438,111.012L13.1775,111.576C9.17996,120.16,7.04666,130.186,7,152.882L7,153.635L7,877.365C7,900.593,9.13603,910.746,13.1775,919.424L13.4438,919.988C13.6231,920.363,13.806,920.736,13.9925,921.107L14.2749,921.662L14.2749,921.662L14.5748,922.24C14.6757,922.432,14.7776,922.625,14.8804,922.817C20.0225,932.432,27.5682,939.978,37.1831,945.12C37.3753,945.222,37.5676,945.324,37.76,945.425L38.3375,945.725L38.8933,946.007C39.2644,946.194,39.6369,946.377,40.0117,946.556L40.5757,946.822C49.16,950.82,59.1861,952.953,81.8818,953L82.6346,953L353.365,953C376.593,953,386.746,950.864,395.424,946.822L395.988,946.556C396.363,946.377,396.736,946.194,397.107,946.007L397.662,945.725L397.662,945.725L398.24,945.425C398.432,945.324,398.625,945.222,398.817,945.12C408.432,939.978,415.978,932.432,421.12,922.817C421.222,922.625,421.324,922.432,421.425,922.24L421.725,921.662L422.007,921.107C422.194,920.736,422.377,920.363,422.556,919.988L422.822,919.424C426.82,910.84,428.953,900.814,429,878.118L429,877.365L429,153.635C429,130.407,426.864,120.254,422.822,111.576L422.556,111.012C422.377,110.637,422.194,110.264,422.007,109.893L421.725,109.338L421.725,109.338L421.425,108.76C421.324,108.568,421.222,108.375,421.12,108.183C415.978,98.5682,408.432,91.0225,398.817,85.8804C398.625,85.7776,398.432,85.6757,398.24,85.5748L397.662,85.2749L397.107,84.9925C396.736,84.806,396.363,84.6231,395.988,84.4438L395.424,84.1775C386.746,80.136,376.593,78,353.365,78ZM108.335,91.95C109.548,91.9949,110.552,92.2533,111.44,92.7509C112.398,93.2881,113.154,94.0798,113.662,95.0768L113.662,95.0768L113.925,95.5951L114.04,95.8455C114.308,96.4653,114.414,97.0598,114.414,97.9958L114.414,97.9958L114.417,98.5311C114.473,103.641,115.316,106.896,117.357,110.717C119.258,114.278,122.043,117.066,125.598,118.97C129.351,120.98,133.384,121.865,139.869,121.912L139.869,121.912L140.413,121.914L295.783,121.914L296.328,121.912C302.817,121.865,306.849,120.98,310.602,118.97C314.158,117.066,316.942,114.278,318.844,110.717C320.951,106.772,321.784,103.403,321.784,97.9978L321.784,97.9978L321.787,97.7289C321.805,96.9512,321.905,96.4231,322.126,95.8731C322.175,95.7526,322.228,95.6326,322.297,95.4853L322.297,95.4853L322.461,95.1413L322.612,94.8399C323.08,93.9665,323.738,93.2631,324.558,92.7685C325.4,92.2604,326.355,91.9958,327.523,91.95L327.523,91.95L356.029,91.95L358.148,91.9639L359.51,91.9816L360.833,92.0065L362.118,92.0389L363.367,92.0789L364.58,92.1265L365.758,92.1818C365.952,92.1917,366.144,92.202,366.334,92.2125L366.334,92.2125L367.463,92.2798L368.559,92.3552L369.625,92.4389L370.661,92.5309C370.832,92.5469,371.001,92.5633,371.169,92.5801L371.169,92.5801L372.162,92.6848C372.326,92.703,372.488,92.7216,372.649,92.7405L372.649,92.7405L373.603,92.8583L374.531,92.9849C377.585,93.422,380.236,94.0085,382.667,94.7653L382.667,94.7653L383.39,94.9974C383.629,95.0765,383.865,95.1574,384.1,95.2399L384.1,95.2399L384.8,95.4929C385.61,95.7941,386.401,96.117,387.178,96.4623L387.178,96.4623L387.842,96.7639C388.062,96.8662,388.282,96.9704,388.501,97.0765L388.501,97.0765L388.994,97.319C389.477,97.5597,389.968,97.8137,390.474,98.0846C397.991,102.104,403.896,108.009,407.915,115.526C408.186,116.032,408.44,116.523,408.684,117.011L408.684,117.011L408.926,117.504L409.234,118.153L409.234,118.153L409.384,118.48L409.676,119.136L409.957,119.799L410.228,120.47C410.494,121.144,410.743,121.831,410.978,122.536L410.978,122.536L411.208,123.247L411.428,123.971L411.638,124.708L411.839,125.46C411.937,125.84,412.031,126.226,412.121,126.618L412.121,126.618L412.298,127.412C412.327,127.546,412.355,127.681,412.383,127.816L412.383,127.816L412.546,128.638L412.7,129.48C412.774,129.906,412.846,130.34,412.914,130.783L412.914,130.783L413.045,131.68C413.066,131.831,413.087,131.983,413.108,132.137L413.108,132.137L413.226,133.07C413.245,133.227,413.264,133.386,413.282,133.545L413.282,133.545L413.388,134.516C413.405,134.681,413.422,134.846,413.438,135.012L413.438,135.012L413.531,136.024C413.546,136.195,413.561,136.367,413.575,136.541L413.575,136.541L413.656,137.595L413.729,138.681L413.795,139.797L413.852,140.945L413.902,142.126L413.945,143.342L413.98,144.593L414.019,146.538C414.023,146.759,414.026,146.981,414.029,147.205L414.029,147.205L414.042,148.568L414.049,149.971L414.049,880.029L414.036,882.118L414.019,883.462L413.98,885.407L413.945,886.658L413.902,887.874L413.852,889.055L413.795,890.203L413.729,891.32L413.656,892.405C413.643,892.583,413.63,892.76,413.616,892.936L413.616,892.936L413.531,893.976L413.438,894.988L413.336,895.973C413.318,896.135,413.3,896.295,413.282,896.455L413.282,896.455L413.168,897.4C413.148,897.556,413.128,897.71,413.107,897.864L413.107,897.864L412.98,898.772L412.844,899.658L412.699,900.521C412.6,901.089,412.494,901.644,412.383,902.185L412.383,902.185L412.21,902.988L412.029,903.773C411.781,904.809,411.507,905.799,411.207,906.755L411.207,906.755L410.977,907.466C410.86,907.819,410.738,908.167,410.613,908.512L410.613,908.512L410.358,909.195C410.184,909.648,410.004,910.095,409.816,910.537L409.816,910.537L409.529,911.197L409.232,911.852L408.923,912.501L408.681,912.994C408.44,913.477,408.186,913.968,407.915,914.474C403.896,921.991,397.991,927.896,390.474,931.915C389.968,932.186,389.477,932.44,388.989,932.684L388.989,932.684L388.496,932.926L387.847,933.234L387.847,933.234L387.52,933.384L386.864,933.676L386.201,933.957L385.53,934.228C384.856,934.494,384.169,934.743,383.464,934.978L383.464,934.978L382.753,935.208L382.029,935.428L381.292,935.638L380.54,935.839C380.16,935.937,379.774,936.031,379.382,936.121L379.382,936.121L378.588,936.298C378.454,936.327,378.319,936.355,378.184,936.383L378.184,936.383L377.362,936.546L376.52,936.7C376.094,936.774,375.66,936.846,375.217,936.914L375.217,936.914L374.32,937.045C374.169,937.066,374.017,937.087,373.863,937.108L373.863,937.108L372.93,937.226C372.773,937.245,372.614,937.264,372.455,937.282L372.455,937.282L371.484,937.388C371.319,937.405,371.154,937.422,370.988,937.438L370.988,937.438L369.976,937.531C369.805,937.546,369.633,937.561,369.459,937.575L369.459,937.575L368.405,937.656L367.319,937.729L366.203,937.795L365.055,937.852L363.874,937.902L362.658,937.945L361.407,937.98L359.462,938.019C359.241,938.023,359.019,938.026,358.795,938.029L358.795,938.029L357.432,938.049L79.9709,938.049L77.8818,938.036L76.538,938.019L74.593,937.98L73.342,937.945L72.1263,937.902L70.9448,937.852L69.7966,937.795L68.6804,937.729L67.5954,937.656C67.4171,937.643,67.24,937.63,67.0642,937.616L67.0642,937.616L66.0238,937.531L65.0118,937.438L64.0273,937.336C63.8654,937.318,63.7047,937.3,63.545,937.282L63.545,937.282L62.5996,937.168C62.4441,937.148,62.2897,937.128,62.1363,937.107L62.1363,937.107L61.2277,936.98L60.3423,936.844L59.4791,936.699C58.9107,936.6,58.3565,936.494,57.8149,936.383L57.8149,936.383L57.0118,936.21L56.2267,936.029C55.1914,935.781,54.2011,935.507,53.2447,935.207L53.2447,935.207L52.5336,934.977C52.1811,934.86,51.8329,934.738,51.4885,934.613L51.4885,934.613L50.8045,934.358C50.3517,934.184,49.9049,934.004,49.4627,933.816L49.4627,933.816L48.8026,933.529L48.1485,933.232L47.4991,932.923L47.006,932.681C46.523,932.44,46.0323,932.186,45.5258,931.915C38.0095,927.896,32.1044,921.991,28.0846,914.474C27.8137,913.968,27.5597,913.477,27.3164,912.989L27.3164,912.989L27.074,912.496C26.9677,912.276,26.8633,912.056,26.7608,911.836L26.7608,911.836L26.4588,911.171L26.168,910.5C26.0728,910.275,25.9795,910.05,25.888,909.822L25.888,909.822L25.6189,909.136L25.3605,908.441C25.1496,907.857,24.9497,907.262,24.7605,906.654L24.7605,906.654L24.5385,905.917C24.0686,904.305,23.67,902.592,23.3369,900.729L23.3369,900.729L23.1878,899.857C23.1396,899.563,23.093,899.265,23.0479,898.963L23.0479,898.963L22.917,898.046C22.8748,897.736,22.8342,897.422,22.795,897.104L22.795,897.104L22.6819,896.135L22.5774,895.14L22.4814,894.117L22.3939,893.064L22.3146,891.981C22.3021,891.798,22.2899,891.614,22.278,891.428L22.278,891.428L22.211,890.298L22.1519,889.134C22.1427,888.937,22.1338,888.739,22.1253,888.539L22.1253,888.539L22.0779,887.324C22.0707,887.119,22.0637,886.912,22.0571,886.703L22.0571,886.703L22.0212,885.433L21.9927,884.126L21.9715,882.781L21.9576,881.395L21.9508,879.969L21.9508,149.971L21.9639,147.852L21.9816,146.49L22.0065,145.167L22.0389,143.882L22.0789,142.633L22.1265,141.42L22.1818,140.242C22.1917,140.048,22.202,139.856,22.2125,139.666L22.2125,139.666L22.2798,138.537L22.3552,137.441L22.4389,136.375L22.5309,135.339C22.5469,135.168,22.5633,134.999,22.5801,134.831L22.5801,134.831L22.6848,133.838C22.703,133.674,22.7216,133.512,22.7405,133.351L22.7405,133.351L22.8583,132.397L22.9849,131.469C23.422,128.415,24.0085,125.764,24.7653,123.333L24.7653,123.333L24.9974,122.61C25.0765,122.371,25.1574,122.135,25.2399,121.9L25.2399,121.9L25.4929,121.2C25.7941,120.39,26.117,119.599,26.4623,118.822L26.4623,118.822L26.7639,118.158C26.8662,117.938,26.9704,117.718,27.0765,117.499L27.0765,117.499L27.319,117.006C27.5597,116.523,27.8137,116.032,28.0846,115.526C32.1044,108.009,38.0095,102.104,45.5258,98.0846C46.0323,97.8137,46.523,97.5597,47.0112,97.3164L47.0112,97.3164L47.5044,97.074C47.7237,96.9677,47.9435,96.8633,48.1642,96.7608L48.1642,96.7608L48.829,96.4588L49.4998,96.168C49.7245,96.0728,49.9504,95.9795,50.1777,95.888L50.1777,95.888L50.8639,95.6189L51.5594,95.3605C52.1432,95.1496,52.7379,94.9497,53.3463,94.7605L53.3463,94.7605L54.0832,94.5385C55.695,94.0686,57.4076,93.67,59.2715,93.3369L59.2715,93.3369L60.1427,93.1878C60.4368,93.1396,60.7347,93.093,61.0365,93.0479L61.0365,93.0479L61.954,92.917C62.2639,92.8748,62.578,92.8342,62.8964,92.795L62.8964,92.795L63.8646,92.6819L64.8599,92.5774L65.8832,92.4814L66.9358,92.3939L68.0188,92.3146C68.2019,92.3021,68.3862,92.2899,68.572,92.278L68.572,92.278L69.7025,92.211L70.8661,92.1519C71.0628,92.1427,71.261,92.1338,71.4606,92.1253L71.4606,92.1253L72.676,92.0779C72.8815,92.0707,73.0885,92.0637,73.297,92.0571L73.297,92.0571L74.5665,92.0212L75.8735,91.9927L77.2192,91.9715L78.6045,91.95L108.335,91.95ZM108.285,94.049L80.0332,94.049L78.6323,94.0574L77.2722,94.0709L75.9519,94.0914L74.6702,94.1188L73.4261,94.1535L72.2184,94.1955L71.0461,94.2449L69.9081,94.3018C69.7212,94.3119,69.5357,94.3223,69.3515,94.3331L69.3515,94.3331L68.2628,94.4015L67.2055,94.4778L66.1787,94.5619L65.1812,94.6542L64.2119,94.7546C64.0526,94.772,63.8945,94.7898,63.7374,94.8079L63.7374,94.8079L62.8084,94.9209L61.9048,95.0422L61.0255,95.1722C60.0135,95.3289,59.049,95.5034,58.1241,95.6965L58.1241,95.6965L57.3409,95.8666L56.576,96.0459L55.8283,96.2346C55.4586,96.3313,55.0949,96.4315,54.7366,96.5354L54.7366,96.5354L54.0272,96.748C53.9101,96.7842,53.7935,96.8208,53.6775,96.8579L53.6775,96.8579L52.9877,97.0852C52.4179,97.2787,51.8603,97.4826,51.3121,97.6971L51.3121,97.6971L50.6585,97.9597C50.3337,98.0936,50.0119,98.2313,49.6925,98.3731L49.6925,98.3731L49.0565,98.6618L48.4256,98.9611L47.9428,99.1984C47.4783,99.43,47.0054,99.6747,46.5162,99.9364C39.3658,103.76,33.7604,109.366,29.9364,116.516C29.6747,117.005,29.43,117.478,29.201,117.938L29.201,117.938L28.9637,118.42L28.6689,119.041L28.3845,119.667C28.3379,119.772,28.2918,119.877,28.2461,119.982L28.2461,119.982L27.9769,120.618L27.7177,121.261C27.6329,121.477,27.5498,121.694,27.4684,121.913L27.4684,121.913L27.2289,122.574L27.2289,122.574L27.1128,122.909L26.8878,123.587C26.8143,123.815,26.7425,124.045,26.6723,124.277L26.6723,124.277L26.4662,124.981L26.4662,124.981L26.3666,125.338L26.1744,126.064C26.0807,126.431,25.9903,126.804,25.9033,127.183L25.9033,127.183L25.7337,127.951C25.7062,128.08,25.6791,128.21,25.6523,128.342L25.6523,128.342L25.496,129.138L25.3484,129.954C25.3006,130.229,25.2543,130.508,25.2094,130.791L25.2094,130.791L25.0788,131.651C25.0578,131.796,25.0371,131.942,25.0167,132.09L25.0167,132.09L24.8987,132.985C24.8797,133.136,24.8611,133.288,24.8428,133.442L24.8428,133.442L24.737,134.374C24.72,134.532,24.7034,134.691,24.6871,134.851L24.6871,134.851L24.5934,135.824L24.5075,136.824L24.4294,137.854L24.3589,138.915L24.296,140.006C24.2861,140.19,24.2765,140.376,24.2673,140.563L24.2673,140.563L24.2155,141.703L24.1709,142.877C24.1641,143.076,24.1576,143.276,24.1513,143.477L24.1513,143.477L24.1175,144.703L24.0906,145.966L24.0706,147.266L24.0574,148.605L24.0508,149.983L24.0508,879.967L24.0574,881.368L24.0709,882.728L24.0914,884.048L24.1188,885.33L24.1535,886.574L24.1955,887.782L24.2449,888.954L24.3018,890.092C24.3119,890.279,24.3223,890.464,24.3331,890.648L24.3331,890.648L24.4015,891.737L24.4778,892.794L24.5619,893.821L24.6542,894.819L24.7546,895.788C24.772,895.947,24.7898,896.106,24.8079,896.263L24.8079,896.263L24.9209,897.192L25.0422,898.095L25.1722,898.974C25.3289,899.986,25.5034,900.951,25.6965,901.876L25.6965,901.876L25.8666,902.659L26.0459,903.424L26.2346,904.172C26.3313,904.541,26.4315,904.905,26.5354,905.263L26.5354,905.263L26.748,905.973C26.7842,906.09,26.8208,906.206,26.8579,906.322L26.8579,906.322L27.0852,907.012C27.2787,907.582,27.4826,908.14,27.6971,908.688L27.6971,908.688L27.9597,909.342C28.0936,909.666,28.2313,909.988,28.3731,910.308L28.3731,910.308L28.6618,910.944L28.9611,911.574L29.1984,912.057C29.43,912.522,29.6747,912.995,29.9364,913.484C33.7604,920.634,39.3658,926.24,46.5162,930.064C47.0054,930.325,47.4783,930.57,47.9377,930.799L47.9377,930.799L48.4204,931.036L49.0413,931.331L49.6672,931.616C49.772,931.662,49.8771,931.708,49.9824,931.754L49.9824,931.754L50.6178,932.023L51.2609,932.282C51.4766,932.367,51.6938,932.45,51.9126,932.532L51.9126,932.532L52.5741,932.771L52.5741,932.771L52.9088,932.887L53.5868,933.112C53.8149,933.186,54.0449,933.257,54.2772,933.328L54.2772,933.328L54.981,933.534L54.981,933.534L55.3382,933.633L56.064,933.826C56.4308,933.919,56.8036,934.01,57.183,934.097L57.183,934.097L57.9507,934.266C58.0802,934.294,58.2105,934.321,58.3415,934.348L58.3415,934.348L59.1376,934.504L59.9538,934.652C60.2294,934.699,60.5085,934.746,60.7913,934.791L60.7913,934.791L61.651,934.921C61.7962,934.942,61.9424,934.963,62.0896,934.983L62.0896,934.983L62.9847,935.101C63.1359,935.12,63.2882,935.139,63.4415,935.157L63.4415,935.157L64.3743,935.263C64.532,935.28,64.6907,935.297,64.8506,935.313L64.8506,935.313L65.8235,935.407L66.8244,935.493L67.8544,935.571L68.9146,935.641L70.0058,935.704C70.1904,935.714,70.3762,935.723,70.5635,935.733L70.5635,935.733L71.7034,935.785L72.8772,935.829C73.0757,935.836,73.2756,935.842,73.477,935.849L73.477,935.849L74.7034,935.883L75.9662,935.909L77.2663,935.929L78.605,935.949L356.017,935.949L358.069,935.937L359.388,935.92L360.67,935.897L361.914,935.867L363.123,935.829C363.321,935.822,363.518,935.815,363.714,935.808L363.714,935.808L364.871,935.76L365.994,935.704L367.085,935.641L368.145,935.571L369.175,935.493L370.176,935.407L371.149,935.313C371.309,935.297,371.468,935.28,371.625,935.263L371.625,935.263L372.558,935.157L373.465,935.044L374.348,934.921C374.494,934.9,374.638,934.879,374.781,934.857L374.781,934.857L375.629,934.723L376.456,934.579C376.592,934.555,376.727,934.53,376.861,934.504L376.861,934.504L377.657,934.348L378.434,934.183C378.69,934.127,378.943,934.069,379.193,934.009L379.193,934.009L379.934,933.826C380.423,933.701,380.902,933.57,381.371,933.433L381.371,933.433L382.067,933.222L382.751,933.002L383.423,932.773C383.645,932.694,383.865,932.615,384.084,932.533L384.084,932.533L384.736,932.284L385.378,932.025L385.378,932.025L385.697,931.892L386.328,931.618L386.954,931.333C387.161,931.237,387.368,931.139,387.574,931.039L387.574,931.039L388.057,930.802C388.522,930.57,388.995,930.325,389.484,930.064C396.634,926.24,402.24,920.634,406.064,913.484C406.325,912.995,406.57,912.522,406.799,912.062L406.799,912.062L407.036,911.58L407.331,910.959L407.616,910.333C407.662,910.228,407.708,910.123,407.754,910.018L407.754,910.018L408.023,909.382L408.282,908.739C408.367,908.523,408.45,908.306,408.532,908.087L408.532,908.087L408.771,907.426L408.771,907.426L408.887,907.091L409.112,906.413C409.186,906.185,409.257,905.955,409.328,905.723L409.328,905.723L409.534,905.019L409.534,905.019L409.633,904.662L409.826,903.936C409.919,903.569,410.01,903.196,410.097,902.817L410.097,902.817L410.266,902.049C410.294,901.92,410.321,901.79,410.348,901.658L410.348,901.658L410.504,900.862L410.652,900.046C410.699,899.771,410.746,899.492,410.791,899.209L410.791,899.209L410.921,898.349C410.942,898.204,410.963,898.058,410.983,897.91L410.983,897.91L411.101,897.015C411.12,896.864,411.139,896.712,411.157,896.558L411.157,896.558L411.263,895.626C411.28,895.468,411.297,895.309,411.313,895.149L411.313,895.149L411.407,894.176L411.493,893.176L411.571,892.146L411.641,891.085L411.704,889.994C411.714,889.81,411.723,889.624,411.733,889.437L411.733,889.437L411.785,888.297L411.829,887.123C411.836,886.924,411.842,886.724,411.849,886.523L411.849,886.523L411.883,885.297L411.909,884.034L411.929,882.734L411.943,881.395L411.949,880.017L411.949,149.983L411.937,147.931L411.92,146.612L411.897,145.33L411.867,144.086L411.829,142.877C411.822,142.679,411.815,142.482,411.808,142.286L411.808,142.286L411.76,141.129L411.704,140.006L411.641,138.915L411.571,137.855L411.493,136.825L411.407,135.824L411.313,134.851C411.297,134.691,411.28,134.532,411.263,134.375L411.263,134.375L411.157,133.442L411.044,132.535L410.921,131.652C410.9,131.506,410.879,131.362,410.857,131.219L410.857,131.219L410.723,130.371L410.579,129.544C410.555,129.408,410.53,129.273,410.504,129.139L410.504,129.139L410.348,128.343L410.183,127.566C410.127,127.31,410.069,127.057,410.009,126.807L410.009,126.807L409.826,126.066C409.701,125.577,409.57,125.098,409.433,124.629L409.433,124.629L409.222,123.933L409.002,123.249L408.773,122.577C408.694,122.355,408.615,122.135,408.533,121.916L408.533,121.916L408.284,121.264L408.025,120.622L408.025,120.622L407.892,120.303L407.618,119.672L407.333,119.046C407.237,118.839,407.139,118.632,407.039,118.426L407.039,118.426L406.802,117.943C406.57,117.478,406.325,117.005,406.064,116.516C402.24,109.366,396.634,103.76,389.484,99.9364C388.995,99.6747,388.522,99.43,388.062,99.201L388.062,99.201L387.58,98.9637L386.959,98.6689L386.333,98.3845C386.228,98.3379,386.123,98.2918,386.018,98.2461L386.018,98.2461L385.382,97.9769L384.739,97.7177C384.523,97.6329,384.306,97.5498,384.087,97.4684L384.087,97.4684L383.426,97.2289L383.426,97.2289L383.091,97.1128L382.413,96.8878C382.185,96.8143,381.955,96.7425,381.723,96.6723L381.723,96.6723L381.019,96.4662L381.019,96.4662L380.662,96.3666L379.936,96.1744C379.569,96.0807,379.196,95.9903,378.817,95.9033L378.817,95.9033L378.049,95.7337C377.92,95.7062,377.79,95.6791,377.658,95.6523L377.658,95.6523L376.862,95.496L376.046,95.3484C375.771,95.3006,375.492,95.2543,375.209,95.2094L375.209,95.2094L374.349,95.0788C374.204,95.0578,374.058,95.0371,373.91,95.0167L373.91,95.0167L373.015,94.8987C372.864,94.8797,372.712,94.8611,372.558,94.8428L372.558,94.8428L371.626,94.737C371.468,94.72,371.309,94.7034,371.149,94.6871L371.149,94.6871L370.176,94.5934L369.176,94.5075L368.146,94.4294L367.085,94.3589L365.994,94.296C365.81,94.2861,365.624,94.2765,365.437,94.2673L365.437,94.2673L364.297,94.2155L363.123,94.1709C362.924,94.1641,362.724,94.1576,362.523,94.1513L362.523,94.1513L361.297,94.1175L360.034,94.0906L358.734,94.0706L357.395,94.049L327.578,94.049C326.773,94.0824,326.167,94.2505,325.643,94.5666C325.101,94.8936,324.674,95.3753,324.375,96.0065L324.375,96.0065L324.15,96.4828L324.075,96.6568C323.937,96.998,323.884,97.3203,323.884,97.9978L323.884,97.9978L323.881,98.5478C323.824,103.986,322.894,107.592,320.696,111.707C318.599,115.633,315.515,118.722,311.594,120.822C307.516,123.005,303.152,123.962,296.339,124.012L296.339,124.012L295.787,124.014L140.41,124.014L139.857,124.012C133.048,123.962,128.684,123.005,124.607,120.822C120.685,118.722,117.601,115.633,115.504,111.707C113.229,107.448,112.316,103.761,112.314,97.9962L112.314,97.9962L112.311,97.7864C112.3,97.2589,112.242,96.9767,112.112,96.6778L112.112,96.6778L112.085,96.6107L111.792,96.0314C111.47,95.4012,111.007,94.9159,110.413,94.5828C109.832,94.2571,109.156,94.0832,108.285,94.049L108.285,94.049Z" fill="#001727" fill-rule="nonzero" opacity="0.2" transform="translate(218,515.5) translate(-218,-515.5)"/>
        <g id="content-right" fill="#001727" transform="translate(308,542.487) translate(-91,-395.487)">
            <path id="text-1" d="M0,257L176,257C178.209,257,180,258.791,180,261L180,267C180,269.209,178.209,271,176,271L0,271L0,271L0,257Z" opacity="0.1" transform="translate(90,264) translate(-90,-264)" style="animation: 3.4s linear both text-1_o;"/>
            <path id="text-2" d="M0,278L156,278C158.209,278,160,279.791,160,282L160,288C160,290.209,158.209,292,156,292L0,292L0,292L0,278Z" opacity="0.1" transform="translate(80,285) translate(-80,-285)" style="animation: 3.4s linear both text-2_o;"/>
            <path id="text-3" d="M0,298L166,298C168.209,298,170,299.791,170,302L170,308C170,310.209,168.209,312,166,312L0,312L0,312L0,298Z" opacity="0.1" transform="translate(85,305) translate(-85,-305)" style="animation: 3.4s linear both text-3_o;"/>
            <path id="text-4" d="M0,318L176,318C178.209,318,180,319.791,180,322L180,328C180,330.209,178.209,332,176,332L0,332L0,332L0,318Z" opacity="0.1" transform="translate(90,325) translate(-90,-325)" style="animation: 3.4s linear both text-4_o;"/>
            <path id="text-5" d="M0,338L166,338C168.209,338,170,339.791,170,342L170,348C170,350.209,168.209,352,166,352L0,352L0,352L0,338Z" opacity="0.1" transform="translate(85,345) translate(-85,-345)" style="animation: 3.4s linear both text-5_o;"/>
            <path id="text-6" d="M0,358L176,358C178.209,358,180,359.791,180,362L180,368C180,370.209,178.209,372,176,372L0,372L0,372L0,358Z" opacity="0.1" transform="translate(90,365) translate(-90,-365)" style="animation: 3.4s linear both text-6_o;"/>
            <path id="text-7" d="M0,378L58,378C60.2091,378,62,379.791,62,382L62,388C62,390.209,60.2091,392,58,392L0,392L0,392L0,378Z" opacity="0.1" transform="translate(31,385) translate(-31,-385)" style="animation: 3.4s linear both text-7_o;"/>
            <path id="box-6" d="M0,702L178,702C180.209,702,182,703.791,182,706L182,777L182,777C178,784,168.333,788.65,153,790.949C142,790.983,91,790.983,0,790.949L0,702Z" opacity="0.1" transform="translate(91,746.487) translate(-91,-746.487)" style="animation: 3.4s linear both box-6_o;"/>
            <rect id="box-5" width="109" height="109" rx="4" opacity="0.1" transform="translate(125.5,610.5) translate(-54.5,-54.5)" style="animation: 3.4s linear both box-5_o;"/>
            <path id="box-4" d="M0,556L51,556C53.2091,556,55,557.791,55,560L55,661C55,663.209,53.2091,665,51,665L0,665L0,665L0,556Z" opacity="0.1" transform="translate(27.5,610.5) translate(-27.5,-610.5)" style="animation: 3.4s linear both box-4_o;"/>
            <rect id="box-3" width="109" height="109" rx="4" opacity="0.1" transform="translate(125.5,483.5) translate(-54.5,-54.5)" style="animation: 3.4s linear both box-3_o;"/>
            <path id="box-2" d="M0,429L51,429C53.2091,429,55,430.791,55,433L55,534C55,536.209,53.2091,538,51,538L0,538L0,538L0,429Z" opacity="0.1" transform="translate(27.5,483.5) translate(-27.5,-483.5)" style="animation: 3.4s linear both box-2_o;"/>
            <path id="box-1" d="M0,0L178,0C180.209,0,182,1.79086,182,4L182,215C182,217.209,180.209,219,178,219L0,219L0,219L0,0Z" opacity="0.1" transform="translate(91,109.5) translate(-91,-109.5)" style="animation: 3.4s linear both box-1_o;"/>
        </g>
        <g id="content-left" fill="#001727" transform="translate(126,542.487) translate(-91,-395.487)">
            <path id="text-1-2" d="M182,257L6,257C3.79086,257,2,258.791,2,261L2,267C2,269.209,3.79086,271,6,271L182,271L182,257Z" opacity="0" transform="translate(92,268) translate(-92,-264)" style="animation: 3.4s linear both text-1-2_t, 3.4s linear both text-1-2_o;"/>
            <path id="text-2-2" d="M182,278L26,278C23.7909,278,22,279.791,22,282L22,288C22,290.209,23.7909,292,26,292L182,292L182,278Z" opacity="0" transform="translate(102,289) translate(-102,-285)" style="animation: 3.4s linear both text-2-2_t, 3.4s linear both text-2-2_o;"/>
            <path id="text-3-2" d="M182,298L16,298C13.7909,298,12,299.791,12,302L12,308C12,310.209,13.7909,312,16,312L182,312L182,298Z" opacity="0" transform="translate(97,309) translate(-97,-305)" style="animation: 3.4s linear both text-3-2_t, 3.4s linear both text-3-2_o;"/>
            <path id="text-4-2" d="M182,318L6,318C3.79086,318,2,319.791,2,322L2,328C2,330.209,3.79086,332,6,332L182,332L182,318Z" opacity="0" transform="translate(92,329) translate(-92,-325)" style="animation: 3.4s linear both text-4-2_t, 3.4s linear both text-4-2_o;"/>
            <path id="text-5-2" d="M182,338L16,338C13.7909,338,12,339.791,12,342L12,348C12,350.209,13.7909,352,16,352L182,352L182,338Z" opacity="0" transform="translate(97,347.65) translate(-97,-345)" style="animation: 3.4s linear both text-5-2_t, 3.4s linear both text-5-2_o;"/>
            <path id="text-6-2" d="M182,358L6,358C3.79086,358,2,359.791,2,362L2,368C2,370.209,3.79086,372,6,372L182,372L182,358Z" opacity="0" transform="translate(92,369) translate(-92,-365)" style="animation: 3.4s linear both text-6-2_t, 3.4s linear both text-6-2_o;"/>
            <path id="text-7-2" d="M182,378L124,378C121.791,378,120,379.791,120,382L120,388C120,390.209,121.791,392,124,392L182,392L182,378Z" opacity="0" transform="translate(151,389) translate(-151,-385)" style="animation: 3.4s linear both text-7-2_t, 3.4s linear both text-7-2_o;"/>
            <path id="box-6-2" d="M182,716.948L4,716.948C1.79086,716.948,0,718.438,0,720.276L0,779.348C4,785.172,13.6667,789.04,29,790.953L86.798,790.974L182,790.953L182,716.948Z" opacity="0" transform="translate(91,746.487) translate(-91,-746.487)" style="animation: 3.4s linear both box-6-2_o, 3.4s linear both box-6-2_d;"/>
            <path id="box-5-2" d="M107,556L6,556C3.79086,556,2,557.791,2,560L2,661C2,663.209,3.79086,665,6,665L107,665C109.209,665,111,663.209,111,661L111,560C111,557.791,109.209,556,107,556Z" opacity="0" transform="translate(56.5,610.5) translate(-56.5,-610.5)" style="animation: 3.4s linear both box-5-2_o;"/>
            <path id="box-4-2" d="M182,556L131,556C128.791,556,127,557.791,127,560L127,661C127,663.209,128.791,665,131,665L182,665L182,556Z" opacity="0" transform="translate(154.5,610.5) translate(-154.5,-610.5)" style="animation: 3.4s linear both box-4-2_o;"/>
            <path id="box-3-2" d="M107,429L6,429C3.79086,429,2,430.791,2,433L2,534C2,536.209,3.79086,538,6,538L107,538C109.209,538,111,536.209,111,534L111,433C111,430.791,109.209,429,107,429Z" opacity="0" transform="translate(56.5,483.5) translate(-56.5,-483.5)" style="animation: 3.4s linear both box-3-2_o;"/>
            <path id="box-2-2" d="M182,429L131,429C128.791,429,127,430.791,127,433L127,534C127,536.209,128.791,538,131,538L182,538L182,429Z" opacity="0" transform="translate(154.5,483.5) translate(-154.5,-483.5)" style="animation: 3.4s linear both box-2-2_o;"/>
            <path id="box-1-2" d="M182,0L4,0C1.79086,0,0,1.79086,0,4L0,215C0,217.209,1.79086,219,4,219L182,219L182,0Z" opacity="0" transform="translate(91,120.5) scale(1,1.1) translate(-91,-109.5)" style="animation: 3.4s linear both box-1-2_t, 3.4s linear both box-1-2_o;"/>
        </g>
        <rect id="line" fill="#62C7B0" x="216" y="0" width="2" height="1041"></rect>
    </g>
</svg>
